<svg xmlns="http://www.w3.org/2000/svg" width="618" height="618" version="1.1"><path fill="#F3A021" d="M0 0 C2.61277503 0.03145553 5.22494385 0.04101856 7.83789062 0.046875 C9.5253979 0.05603743 11.21289913 0.06641076 12.90039062 0.078125 C13.66825897 0.08237488 14.43612732 0.08662476 15.2272644 0.09100342 C29.30690039 0.27504086 40.86975528 5.04944119 53.72070312 10.28125 C53.72070312 10.94125 53.72070312 11.60125 53.72070312 12.28125 C54.46320313 12.57 55.20570313 12.85875 55.97070312 13.15625 C58.28810109 14.10427644 60.49987427 15.12970911 62.72070312 16.28125 C62.72070312 16.94125 62.72070312 17.60125 62.72070312 18.28125 C63.48382813 18.57 64.24695313 18.85875 65.03320312 19.15625 C67.72070312 20.28125 67.72070312 20.28125 70.72070312 22.28125 C70.72070312 22.94125 70.72070312 23.60125 70.72070312 24.28125 C72.04070312 24.61125 73.36070312 24.94125 74.72070312 25.28125 C74.72070312 25.94125 74.72070312 26.60125 74.72070312 27.28125 C75.33945312 27.52875 75.95820313 27.77625 76.59570312 28.03125 C79.10780608 29.50895762 79.48177656 30.72080177 80.72070312 33.28125 C81.71070313 33.61125 82.70070313 33.94125 83.72070312 34.28125 C83.72070312 34.94125 83.72070312 35.60125 83.72070312 36.28125 C84.71070313 36.61125 85.70070313 36.94125 86.72070312 37.28125 C88.56786871 39.59990534 90.25259103 41.89353531 91.90820312 44.34375 C92.63632202 45.41653198 92.63632202 45.41653198 93.37915039 46.51098633 C103.21962101 61.32437143 109.03298827 76.07470072 111.32617188 93.7109375 C111.46164429 94.72921631 111.5971167 95.74749512 111.73669434 96.79663086 C112.06806818 99.29107856 112.39597784 101.7859296 112.72070312 104.28125 C113.57062332 104.28671844 113.57062332 104.28671844 114.43771362 104.29229736 C120.37619927 104.33435789 126.31392888 104.40386559 132.25195312 104.48876953 C134.46313894 104.51686141 136.67442297 104.53813408 138.88574219 104.55224609 C142.07863221 104.57383913 145.27035583 104.62057349 148.46289062 104.671875 C149.4393454 104.67310364 150.41580017 104.67433228 151.42184448 104.67559814 C159.90490601 104.85350792 167.58808769 107.09470865 174.34570312 112.40625 C174.99796875 112.90382813 175.65023438 113.40140625 176.32226562 113.9140625 C177.01449219 114.59082031 177.01449219 114.59082031 177.72070312 115.28125 C177.72070312 115.94125 177.72070312 116.60125 177.72070312 117.28125 C178.71070313 117.61125 179.70070313 117.94125 180.72070312 118.28125 C186.07739269 126.38900423 187.33358692 136.1456832 188.84570312 145.53125 C189.10184739 147.05060002 189.35885588 148.56980458 189.61669922 150.08886719 C191.18800721 159.45825483 192.53634517 168.84602461 193.67822266 178.27783203 C194.58185574 185.63332547 195.86786319 192.88339561 197.24072266 200.1640625 C198.54185124 207.1232985 199.60800922 214.09342726 200.57617188 221.10595703 C201.69088096 229.17111696 202.92649907 237.2152915 204.1875 245.25878906 C205.35661648 252.76587516 206.44163099 260.28327467 207.51062012 267.80509949 C208.89921862 277.56387911 210.32777955 287.31658678 211.77294922 297.06713867 C212.07274784 299.09364007 212.37123941 301.12033524 212.66845703 303.1472168 C214.73185822 317.25852821 214.73185822 317.25852821 217.25195312 331.29296875 C218.66168067 338.56343468 219.6302463 345.85723949 220.55723572 353.20332336 C221.84075947 363.35762856 223.31602114 373.48000663 224.82788086 383.60253906 C225.29020501 386.70320953 225.74677147 389.80469578 226.203125 392.90625 C226.50160958 394.9141136 226.8004251 396.92192804 227.09960938 398.9296875 C227.2329921 399.83915131 227.36637482 400.74861511 227.50379944 401.68563843 C228.24282189 406.59724346 229.16639015 411.41315313 230.28108215 416.25265503 C230.87532804 418.99475401 231.22787178 421.73595016 231.53710938 424.5234375 C231.66150391 425.60882813 231.78589844 426.69421875 231.9140625 427.8125 C232.09678711 429.46765625 232.09678711 429.46765625 232.28320312 431.15625 C232.53162572 433.38313561 232.78279826 435.60971667 233.03710938 437.8359375 C233.1986853 439.29749268 233.1986853 439.29749268 233.36352539 440.78857422 C233.66274307 443.40481522 233.66274307 443.40481522 234.72070312 446.28125 C236.3033885 466.36061561 233.61195175 482.13728158 220.43554688 498.0390625 C208.25791272 510.98893687 192.12940598 518.4623774 174.42527616 519.46853507 C170.68436135 519.54065811 166.94608777 519.55315876 163.20475769 519.54194641 C161.76155965 519.54497242 160.31836322 519.54886414 158.87516958 519.55353898 C154.93647217 519.56376993 150.99786629 519.56164975 147.05916154 519.55735838 C142.80068709 519.55488219 138.54223417 519.56391639 134.2837677 519.57139587 C125.95126736 519.58412029 117.61879927 519.58593937 109.28629085 519.58359561 C102.51035371 519.58180971 95.73442634 519.58356792 88.95849037 519.58782005 C87.99264645 519.58841524 87.02680252 519.58901043 86.0316906 519.58962366 C84.06931771 519.59083546 82.10694482 519.59204959 80.14457194 519.59326603 C61.75700669 519.60413294 43.3694598 519.60198314 24.98189352 519.59588119 C8.17905881 519.59071316 -8.62371789 519.60196597 -25.42654113 519.62097941 C-42.70033201 519.64037517 -59.97409549 519.64861073 -77.24789733 519.64485615 C-86.93752462 519.6429467 -96.62710257 519.64540668 -106.31672096 519.65957069 C-114.56595673 519.67150765 -122.81511278 519.67286349 -131.06434969 519.66078053 C-135.26864057 519.65490799 -139.47278578 519.65374716 -143.6770668 519.66578293 C-147.5343515 519.6766965 -151.39136988 519.67347405 -155.24864241 519.65952124 C-157.28671754 519.65565339 -159.32480475 519.66637649 -161.36285144 519.67781812 C-173.2039044 519.60901664 -184.7513098 517.9486883 -195.27929688 512.28125 C-196.49359375 511.63349609 -196.49359375 511.63349609 -197.73242188 510.97265625 C-213.36393299 502.12598815 -223.17553417 488.58940539 -228.65527344 471.61791992 C-229.61248906 468.03360432 -229.81104761 464.66670573 -229.77929688 460.96875 C-229.77357666 460.13013428 -229.76785645 459.29151855 -229.76196289 458.42749023 C-229.36928298 443.29278694 -226.58340622 428.21689776 -224.27929688 413.28125 C-224.07986481 411.98362732 -224.07986481 411.98362732 -223.87640381 410.65979004 C-222.5956242 402.32849778 -221.30270952 393.99913104 -219.99438477 385.67211914 C-217.98563839 372.88390906 -216.04440946 360.08749328 -214.15429688 347.28125 C-211.85543862 331.71570356 -209.50406109 316.1586277 -207.12304688 300.60546875 C-206.9114562 299.22320791 -206.9114562 299.22320791 -206.69559097 297.81302261 C-205.26525037 288.47085108 -203.83276509 279.12901035 -202.39753914 269.78758812 C-201.71938903 265.3728246 -201.04203382 260.95793952 -200.36523438 256.54296875 C-200.16811922 255.25717989 -200.16811922 255.25717989 -199.96702194 253.9454155 C-197.881862 240.33198039 -195.84969449 226.71127717 -193.86434937 213.08293152 C-192.87663861 206.30879759 -191.87197489 199.53929937 -190.77929688 192.78125 C-189.83867837 186.95688329 -188.96224067 181.12559721 -188.12695312 175.28515625 C-180.52339011 122.16351137 -180.52339011 122.16351137 -168.11132812 111 C-156.67096219 104.05688136 -145.29127488 104.8338406 -132.34179688 105.09375 C-129.38971768 105.13636626 -126.43767059 105.17319005 -123.48545837 105.20524597 C-121.65899206 105.22682598 -119.83259145 105.25541956 -118.00636292 105.29194641 C-117.18127731 105.30493271 -116.35619171 105.31791901 -115.50610352 105.33129883 C-114.78427383 105.34558426 -114.06244415 105.35986969 -113.31874084 105.37458801 C-111.18627688 105.27699281 -109.32716655 104.86744345 -107.27929688 104.28125 C-107.20582031 103.40110229 -107.20582031 103.40110229 -107.13085938 102.50317383 C-105.44507915 83.79065001 -101.24550086 65.89366147 -90.27929688 50.28125 C-89.74820313 49.47042969 -89.21710938 48.65960938 -88.66992188 47.82421875 C-84.4140945 41.4697609 -79.53240209 35.82958787 -74.27929688 30.28125 C-73.73789063 29.69214844 -73.19648438 29.10304688 -72.63867188 28.49609375 C-71.27929688 27.28125 -71.27929688 27.28125 -69.27929688 27.28125 C-69.27929688 26.62125 -69.27929688 25.96125 -69.27929688 25.28125 C-67.38085938 23.5546875 -67.38085938 23.5546875 -64.90429688 21.65625 C-63.68613281 20.70878906 -63.68613281 20.70878906 -62.44335938 19.7421875 C-60.27929688 18.28125 -60.27929688 18.28125 -58.27929688 18.28125 C-58.27929688 17.62125 -58.27929688 16.96125 -58.27929688 16.28125 C-56.990162 15.60970067 -55.69789484 14.94416141 -54.40429688 14.28125 C-53.685 13.91 -52.96570313 13.53875 -52.22460938 13.15625 C-50.27929688 12.28125 -50.27929688 12.28125 -48.27929688 12.28125 C-48.27929688 11.62125 -48.27929688 10.96125 -48.27929688 10.28125 C-47.63863281 10.02730469 -46.99796875 9.77335937 -46.33789062 9.51171875 C-45.47292969 9.16753906 -44.60796875 8.82335938 -43.71679688 8.46875 C-42.33041016 7.91960938 -42.33041016 7.91960938 -40.91601562 7.359375 C-38.92537826 6.5454255 -36.96754512 5.65060012 -35.02929688 4.71875 C-23.77821396 -0.02321544 -11.97909332 -0.14531122 0 0 Z M-43.27929688 44.28125 C-44.26929688 44.94125 -45.25929687 45.60125 -46.27929688 46.28125 C-46.27929688 46.94125 -46.27929688 47.60125 -46.27929688 48.28125 C-46.81554687 48.508125 -47.35179687 48.735 -47.90429688 48.96875 C-62.02419356 56.7718508 -70.87804121 73.31698075 -75.27929688 88.28125 C-76.99181125 94.32426048 -77.27929688 98.76692864 -77.27929688 105.28125 C-24.47929687 105.28125 28.32070313 105.28125 82.72070312 105.28125 C82.72070312 96.89561296 82.44997811 91.73063014 79.65820312 84.28125 C79.34455811 83.4162085 79.03091309 82.55116699 78.70776367 81.65991211 C76.1679862 74.91313352 73.11640089 69.02947015 68.72070312 63.28125 C67.69009766 61.90259766 67.69009766 61.90259766 66.63867188 60.49609375 C65.68927734 59.39974609 65.68927734 59.39974609 64.72070312 58.28125 C64.06070313 58.28125 63.40070313 58.28125 62.72070312 58.28125 C62.39070312 57.29125 62.06070313 56.30125 61.72070312 55.28125 C42.69547843 37.16867446 21.47714389 30.39311536 -4.30273438 30.83984375 C-18.59920201 31.46236261 -31.51186247 36.2287552 -43.27929688 44.28125 Z" transform="translate(300.279296875,43.71875)"/><path fill="#3A1F13" d="M0 0 C15.80449151 5.85276008 26.10136191 16.42510511 34.9375 30.375 C35.34742188 31.32246094 35.75734375 32.26992187 36.1796875 33.24609375 C37.88694651 35.80774023 37.88694651 35.80774023 41.73046875 35.86328125 C43.19610885 35.83012197 44.66134139 35.77058979 46.125 35.6875 C47.24938477 35.65366211 47.24938477 35.65366211 48.39648438 35.61914062 C50.2443447 35.56029157 52.09117667 35.47060938 53.9375 35.375 C54.43056641 34.35792969 54.43056641 34.35792969 54.93359375 33.3203125 C62.47231835 18.56974567 75.002064 5.90369101 90.6875 0.0625 C97.04515013 -1.90112865 104.76448319 -3.77907153 110.98828125 -0.56640625 C113.13910293 1.1634909 114.70051634 2.90103269 115.9375 5.375 C116.63078011 12.30780106 116.63078011 12.30780106 113.90234375 16.5078125 C110.8914815 19.88783078 107.45984598 20.71193827 103.125 21.5 C92.65461561 23.79390691 86.27375281 26.45612262 79.9375 35.375 C78.4237771 38.00057247 77.17573222 40.60135984 75.9375 43.375 C76.66324219 43.62507813 77.38898438 43.87515625 78.13671875 44.1328125 C88.60271206 48.7746338 96.28037472 59.77692597 100.54296875 70.06640625 C105.79729551 84.13512702 105.21297772 98.12340759 100.9375 112.375 C100.9375 113.035 100.9375 113.695 100.9375 114.375 C101.71351563 113.87871094 102.48953125 113.38242187 103.2890625 112.87109375 C126.14432807 98.49791361 151.18576484 87.096391 178.6875 92.4375 C191.50083132 95.89278035 202.63051612 102.96477978 209.78125 114.296875 C216.55323095 127.11052523 219.6753298 141.00480799 215.44897461 155.21240234 C208.91883052 174.83539765 195.5940172 190.49029117 177.1875 200.0625 C164.38483161 206.24393442 151.9161258 209.4255998 137.9375 211.375 C137.80214844 212.43074219 137.66679687 213.48648438 137.52734375 214.57421875 C134.36145582 237.12504231 126.99290521 257.04979133 111.9375 274.375 C111.26203125 275.18324219 110.5865625 275.99148438 109.890625 276.82421875 C99.3217338 289.10959045 86.0054454 299.28030486 72.1875 307.68359375 C64.97795424 312.07538741 59.70791453 316.28384326 54.9375 323.375 C50.059133 329.85521886 50.059133 329.85521886 46.375 331.5625 C42.66883642 331.27741049 41.55311461 330.05289115 38.9375 327.375 C32.45880326 318.93890977 32.45880326 318.93890977 30.9375 314.375 C29.23371634 313.37491671 29.23371634 313.37491671 26.9375 312.375 C-4.87662584 293.68877207 -31.89469306 268.7639183 -42.28515625 232.375 C-44.13369427 225.2409437 -45.33603031 218.76031846 -45.0625 211.375 C-45.68253906 211.34921875 -46.30257812 211.3234375 -46.94140625 211.296875 C-71.00801454 209.75549106 -93.0024645 198.64450092 -109.2421875 181.0078125 C-118.4769371 170.10035353 -124.6766195 157.02089078 -124.5 142.625 C-124.49242676 141.75246582 -124.48485352 140.87993164 -124.47705078 139.98095703 C-124.08692531 124.55533877 -117.92143816 112.22677878 -106.8359375 101.640625 C-93.95900125 91.12143764 -78.83332036 90.24441615 -62.9296875 91.65234375 C-43.25059592 94.46747265 -26.04460095 103.56505722 -9.0625 113.375 C-9.371875 112.34375 -9.68125 111.3125 -10 110.25 C-14.17644782 95.46626098 -13.65202852 79.3028671 -7.0625 65.375 C-1.70753446 55.84784044 5.89890697 48.40072869 14.9375 42.375 C11.37914357 33.87258103 6.94374145 27.23975733 -1.8125 23.5625 C-5.24306273 22.42803668 -8.67611125 21.98555894 -12.25 21.5 C-18.56633272 20.55095506 -18.56633272 20.55095506 -21.25 17.9375 C-24.19977138 13.76713356 -24.57426743 10.40737976 -24.0625 5.375 C-18.50839935 -3.93019101 -9.37416163 -2.92260408 0 0 Z" transform="translate(257.0625,198.625)"/><path fill="#3A1F13" d="M0 0 C0.33 0.66 0.66 1.32 1 2 C2.32 1.67 3.64 1.34 5 1 C6.125 4.75 6.125 4.75 5 7 C6.98 6.34 8.96 5.68 11 5 C11 4.34 11 3.68 11 3 C15.75 1.875 15.75 1.875 18 3 C17.67 4.19625 17.34 5.3925 17 6.625 C15.27572309 14.38424611 14.33745481 23.72649477 18 31 C18.66 31.66 19.32 32.32 20 33 C20.7541641 34.36144979 21.47989913 35.7387785 22.1875 37.125 C29.74802171 50.76444262 42.4701337 58.99550191 57 64 C58.04220703 64.36738281 58.04220703 64.36738281 59.10546875 64.7421875 C64.95765719 66.50387722 70.9446689 66.18165993 77 66 C77.14695312 65.01902344 77.29390625 64.03804688 77.4453125 63.02734375 C80.12709824 46.40691951 86.65513977 31.01729035 96 17 C96.99 17 97.98 17 99 17 C99.66 15.68 100.32 14.36 101 13 C101.99 13.495 101.99 13.495 103 14 C103 14.66 103 15.32 103 16 C104.98 16.495 104.98 16.495 107 17 C107.495 15.515 107.495 15.515 108 14 C109.98 14 111.96 14 114 14 C114 15.65 114 17.3 114 19 C114.66 19.33 115.32 19.66 116 20 C114.35 20.66 112.7 21.32 111 22 C111.0825 23.010625 111.165 24.02125 111.25 25.0625 C110.94268231 29.90275368 109.6163705 31.99368267 107 36 C124.73851325 41.27664635 143.08137553 42.47715735 161.48901367 42.28125 C164.46090265 42.24975196 167.43225623 42.24021733 170.40429688 42.234375 C180.97363179 42.1910244 191.46589526 41.88895399 202 41 C201.609375 50.08203125 201.609375 50.08203125 201 53 C198.953125 54.76171875 198.953125 54.76171875 197 56 C197 56.66 197 57.32 197 58 C195.35 58 193.7 58 192 58 C191.77873822 60.45779976 191.57249605 62.91527648 191.375 65.375 C191.31054688 66.07367188 191.24609375 66.77234375 191.1796875 67.4921875 C191.03880261 69.32369111 191.01238341 71.16312748 191 73 C191.66 73.66 192.32 74.32 193 75 C191.93458984 74.98259766 191.93458984 74.98259766 190.84765625 74.96484375 C189.46900391 74.95130859 189.46900391 74.95130859 188.0625 74.9375 C187.14597656 74.92589844 186.22945312 74.91429687 185.28515625 74.90234375 C183.03406673 74.74050951 183.03406673 74.74050951 182 76 C180.3972626 76.109128 178.78975256 76.1490639 177.18334961 76.16113281 C176.1539476 76.17074036 175.12454559 76.1803479 174.06394958 76.19024658 C172.93811966 76.19449646 171.81228973 76.19874634 170.65234375 76.203125 C169.49311905 76.20882507 168.33389435 76.21452515 167.13954163 76.22039795 C164.67042966 76.22987507 162.2013049 76.23639262 159.73217773 76.24023438 C156.00545949 76.24982511 152.27932025 76.28077383 148.55273438 76.3125 C136.00483931 76.36877781 124.19759069 76.11789397 112 73 C111.13624756 72.79487793 110.27249512 72.58975586 109.38256836 72.37841797 C107.41190808 71.89477528 105.45457398 71.35752544 103.5 70.8125 C102.2521875 70.46832031 101.004375 70.12414062 99.71875 69.76953125 C98.8215625 69.51558594 97.924375 69.26164062 97 69 C95.82659674 71.34680651 95.87090613 72.75298825 95.8671875 75.3671875 C95.86525391 76.24802002 95.86332031 77.12885254 95.86132812 78.03637695 C95.86583984 78.97312256 95.87035156 79.90986816 95.875 80.875 C95.87693359 81.82141357 95.87886719 82.76782715 95.88085938 83.74291992 C95.92276461 90.54844588 96.26361946 97.23286354 97 104 C97.57613037 104.114646 98.15226074 104.22929199 98.74584961 104.34741211 C103.5427385 105.30413365 108.33709869 106.27203406 113.12890625 107.25390625 C115.2734288 107.69014694 117.41796016 108.12634434 119.5625 108.5625 C120.63435547 108.78357422 121.70621094 109.00464844 122.81054688 109.23242188 C123.86435547 109.44576172 124.91816406 109.65910156 126.00390625 109.87890625 C126.94049072 110.0704126 127.8770752 110.26191895 128.84204102 110.45922852 C136.37466693 111.74912155 143.78663575 112.16769037 151.421875 112.203125 C152.40254944 112.20882507 153.38322388 112.21452515 154.39361572 112.22039795 C156.46438538 112.22979804 158.53516966 112.23636193 160.60595703 112.24023438 C163.69982801 112.24984416 166.79300584 112.28087604 169.88671875 112.3125 C188.17497679 112.41150567 205.56105214 110.16703445 223.3125 105.8125 C224.45783203 105.53986328 225.60316406 105.26722656 226.78320312 104.98632812 C229.52427524 104.33259963 232.26303084 103.67065669 235 103 C235.33 100.36 235.66 97.72 236 95 C236.99 96.485 236.99 96.485 238 98 C238.66 98.33 239.32 98.66 240 99 C239.34 99.66 238.68 100.32 238 101 C237.83318891 104.08347826 237.83318891 104.08347826 238 107 C238.66 107 239.32 107 240 107 C240.33 106.01 240.66 105.02 241 104 C241.99 103.67 242.98 103.34 244 103 C245.66710346 101.50014391 245.66710346 101.50014391 247 100 C251.875 101.875 251.875 101.875 253 103 C253.04063832 104.66617115 253.042721 106.33388095 253 108 C252.34 108 251.68 108 251 108 C249.11608215 111.26545761 248.50712033 114.28111761 248 118 C247.34 118 246.68 118 246 118 C246.66 119.65 247.32 121.3 248 123 C245.8614515 125.1385485 244.86724686 125.42655063 242 126 C242.20625 127.03125 242.4125 128.0625 242.625 129.125 C243.46240083 137.77814189 238.13333294 143.57705324 233 150 C221.46443604 163.69075355 207.53523262 175.016069 192.24609375 184.3125 C185.03688315 188.70149773 179.76928562 192.91052137 175 200 C170.121633 206.48021886 170.121633 206.48021886 166.4375 208.1875 C162.73133642 207.90241049 161.61561461 206.67789115 159 204 C152.52130326 195.56390977 152.52130326 195.56390977 151 191 C149.29621634 189.99991671 149.29621634 189.99991671 147 189 C115.18587416 170.31377207 88.16780694 145.3889183 77.77734375 109 C75.92880573 101.8659437 74.72646969 95.38531846 75 88 C74.37996094 87.97421875 73.75992188 87.9484375 73.12109375 87.921875 C49.05448546 86.38049106 27.0600355 75.26950092 10.8203125 57.6328125 C1.42622328 46.53715241 -4.59172805 33.53554238 -4.3125 18.9375 C-4.31572266 18.09123047 -4.31894531 17.24496094 -4.32226562 16.37304688 C-4.27624683 10.94701249 -3.66317233 6.17757887 -2 1 C-1.34 0.67 -0.68 0.34 0 0 Z" transform="translate(137,322)"/><path fill="#3B2014" d="M0 0 C2.61277503 0.03145553 5.22494385 0.04101856 7.83789062 0.046875 C9.5253979 0.05603743 11.21289913 0.06641076 12.90039062 0.078125 C13.66825897 0.08237488 14.43612732 0.08662476 15.2272644 0.09100342 C29.30690039 0.27504086 40.86975528 5.04944119 53.72070312 10.28125 C53.72070312 10.94125 53.72070312 11.60125 53.72070312 12.28125 C54.46320313 12.57 55.20570313 12.85875 55.97070312 13.15625 C58.28810109 14.10427644 60.49987427 15.12970911 62.72070312 16.28125 C62.72070312 16.94125 62.72070312 17.60125 62.72070312 18.28125 C63.48382813 18.57 64.24695313 18.85875 65.03320312 19.15625 C67.72070312 20.28125 67.72070312 20.28125 70.72070312 22.28125 C70.72070312 22.94125 70.72070312 23.60125 70.72070312 24.28125 C72.04070312 24.61125 73.36070312 24.94125 74.72070312 25.28125 C74.72070312 25.94125 74.72070312 26.60125 74.72070312 27.28125 C75.33945312 27.52875 75.95820313 27.77625 76.59570312 28.03125 C79.10780608 29.50895762 79.48177656 30.72080177 80.72070312 33.28125 C81.71070313 33.61125 82.70070313 33.94125 83.72070312 34.28125 C83.72070312 34.94125 83.72070312 35.60125 83.72070312 36.28125 C84.71070313 36.61125 85.70070313 36.94125 86.72070312 37.28125 C88.56786871 39.59990534 90.25259103 41.89353531 91.90820312 44.34375 C92.63632202 45.41653198 92.63632202 45.41653198 93.37915039 46.51098633 C102.90977239 60.85793979 110.37556873 76.58037962 111.03710938 94.0625 C111.07932617 95.14563477 111.12154297 96.22876953 111.16503906 97.34472656 C111.2040332 98.4787793 111.24302734 99.61283203 111.28320312 100.78125 C111.32348633 101.94366211 111.36376953 103.10607422 111.40527344 104.30371094 C111.48162876 106.59886208 111.55512156 108.89411058 111.62548828 111.18945312 C111.68271431 113.04768503 111.74367593 114.90581535 111.81201172 116.76367188 C111.88128511 118.68567752 111.92737901 120.60848441 111.97070312 122.53125 C112.009375 124.02398437 112.009375 124.02398437 112.04882812 125.546875 C111.51485539 129.99664776 109.57495645 133.26682418 106.72070312 136.65625 C102.13231429 139.14162728 97.82000527 139.15605697 92.72070312 138.28125 C88.78382257 136.31280972 86.35661212 133.33412401 84.72070312 129.28125 C84.41772461 126.78271484 84.41772461 126.78271484 84.34179688 123.9921875 C84.30763672 122.96738281 84.27347656 121.94257813 84.23828125 120.88671875 C84.19864258 119.28763672 84.19864258 119.28763672 84.15820312 117.65625 C84.00334928 102.64896144 84.00334928 102.64896144 80.00976562 88.37890625 C78.95983521 85.85589165 78.05027808 83.3646044 77.18164062 80.77734375 C73.96408582 71.29446868 70.86013302 63.56375464 63.72070312 56.28125 C63.19089844 55.67667969 62.66109375 55.07210937 62.11523438 54.44921875 C53.70839708 45.25359178 42.22438242 38.71819078 30.72070312 34.28125 C29.11775391 33.66056641 29.11775391 33.66056641 27.48242188 33.02734375 C7.30521859 26.46918141 -15.77034057 28.87378836 -34.65429688 38.03125 C-41.16640719 41.38042473 -46.87410601 45.31431785 -52.27929688 50.28125 C-52.98441406 50.91804688 -53.68953125 51.55484375 -54.41601562 52.2109375 C-63.14276339 60.4888811 -68.87404463 70.14079996 -73.27929688 81.28125 C-73.6840625 82.29574219 -74.08882812 83.31023437 -74.50585938 84.35546875 C-77.93171464 94.76858997 -77.79569205 105.46339237 -77.77661133 116.31591797 C-77.84100572 123.77362231 -78.13191618 128.98680817 -82.27929688 135.28125 C-85.44301722 138.34910003 -88.46015332 138.55053761 -92.71679688 138.78125 C-96.42490703 138.67630349 -98.88799644 138.40004246 -101.84179688 136.09375 C-106.61636972 130.58462749 -106.57023595 125.70344155 -106.46679688 118.71875 C-106.45495361 117.3416687 -106.45495361 117.3416687 -106.44287109 115.93676758 C-106.36413457 109.4443316 -106.18191284 102.95564833 -105.90429688 96.46875 C-105.87360107 95.66429443 -105.84290527 94.85983887 -105.8112793 94.03100586 C-105.04934238 78.96421606 -98.8433419 62.58793682 -90.27929688 50.28125 C-89.48072266 49.06115234 -89.48072266 49.06115234 -88.66601562 47.81640625 C-84.40958295 41.4660044 -79.53038932 35.82746199 -74.27929688 30.28125 C-73.73789063 29.69214844 -73.19648438 29.10304688 -72.63867188 28.49609375 C-71.27929688 27.28125 -71.27929688 27.28125 -69.27929688 27.28125 C-69.27929688 26.62125 -69.27929688 25.96125 -69.27929688 25.28125 C-67.38085938 23.5546875 -67.38085938 23.5546875 -64.90429688 21.65625 C-64.0921875 21.02460937 -63.28007812 20.39296875 -62.44335938 19.7421875 C-60.27929688 18.28125 -60.27929688 18.28125 -58.27929688 18.28125 C-58.27929688 17.62125 -58.27929688 16.96125 -58.27929688 16.28125 C-56.990162 15.60970067 -55.69789484 14.94416141 -54.40429688 14.28125 C-53.685 13.91 -52.96570313 13.53875 -52.22460938 13.15625 C-50.27929688 12.28125 -50.27929688 12.28125 -48.27929688 12.28125 C-48.27929688 11.62125 -48.27929688 10.96125 -48.27929688 10.28125 C-47.63863281 10.02730469 -46.99796875 9.77335937 -46.33789062 9.51171875 C-45.47292969 9.16753906 -44.60796875 8.82335938 -43.71679688 8.46875 C-42.33041016 7.91960938 -42.33041016 7.91960938 -40.91601562 7.359375 C-38.92537826 6.5454255 -36.96754512 5.65060012 -35.02929688 4.71875 C-23.77821396 -0.02321544 -11.97909332 -0.14531122 0 0 Z" transform="translate(300.279296875,43.71875)"/><path fill="#3A2013" d="M0 0 C0.99 1.485 0.99 1.485 2 3 C2.99 3.495 2.99 3.495 4 4 C3.34 4.66 2.68 5.32 2 6 C1.83318891 9.08347826 1.83318891 9.08347826 2 12 C2.66 12 3.32 12 4 12 C4.33 11.01 4.66 10.02 5 9 C5.99 8.67 6.98 8.34 8 8 C9.66710346 6.50014391 9.66710346 6.50014391 11 5 C15.875 6.875 15.875 6.875 17 8 C17.04063832 9.66617115 17.042721 11.33388095 17 13 C16.34 13 15.68 13 15 13 C13.11608215 16.26545761 12.50712033 19.28111761 12 23 C11.34 23 10.68 23 10 23 C10.99 25.475 10.99 25.475 12 28 C9.8614515 30.1385485 8.86724686 30.42655063 6 31 C6.309375 32.546875 6.309375 32.546875 6.625 34.125 C7.46240083 42.77814189 2.13333294 48.57705324 -3 55 C-14.53556396 68.69075355 -28.46476738 80.016069 -43.75390625 89.3125 C-50.96311685 93.70149773 -56.23071438 97.91052137 -61 105 C-65.878367 111.48021886 -65.878367 111.48021886 -69.5625 113.1875 C-73.26866358 112.90241049 -74.38438539 111.67789115 -77 109 C-79.90398074 105.16517216 -82.63262905 101.21449639 -85.16015625 97.12109375 C-87.30778019 93.65185508 -89.34495201 91.82752399 -93 90 C-92.67 88.68 -92.34 87.36 -92 86 C-91.34 86.99 -90.68 87.98 -90 89 C-90.04125 88.278125 -90.0825 87.55625 -90.125 86.8125 C-89.98786552 83.72697424 -89.40704175 81.74002866 -88 79 C-86.515 78.01 -86.515 78.01 -85 77 C-84.67 78.32 -84.34 79.64 -84 81 C-83.01 80.67 -82.02 80.34 -81 80 C-81 79.01 -81 78.02 -81 77 C-82.65 76.67 -84.3 76.34 -86 76 C-84.02 75.505 -84.02 75.505 -82 75 C-83.74587643 73.25412357 -85.96691756 72.18537252 -88.06738281 70.91479492 C-94.5425012 66.97559059 -100.7799314 62.86238088 -106.75 58.1875 C-107.60694458 57.52258545 -107.60694458 57.52258545 -108.48120117 56.84423828 C-111.80004161 54.19175372 -114.4751406 51.41346283 -117 48 C-115.30230469 48.14308594 -115.30230469 48.14308594 -113.5703125 48.2890625 C-112.08858388 48.40159885 -110.60681055 48.51354758 -109.125 48.625 C-108.00544922 48.72167969 -108.00544922 48.72167969 -106.86328125 48.8203125 C-104.9129953 48.96087365 -102.95530533 48.98759849 -101 49 C-100.34 48.34 -99.68 47.68 -99 47 C-99.40929986 44.94603274 -99.40929986 44.94603274 -100 43 C-99.67 42.67 -99.34 42.34 -99 42 C-99.28730055 39.66055264 -99.61936779 37.3260857 -100 35 C-100.99 35 -101.98 35 -103 35 C-103.33 33.68 -103.66 32.36 -104 31 C-102 30.33333333 -100 29.66666667 -98 29 C-97.67 28.34 -97.34 27.68 -97 27 C-96.67 27.99 -96.34 28.98 -96 30 C-94.68 29.34 -93.36 28.68 -92 28 C-92.66 26.68 -93.32 25.36 -94 24 C-93.01 23.67 -92.02 23.34 -91 23 C-91.33 22.34 -91.66 21.68 -92 21 C-87.23158097 18.17607109 -83.27110092 17.57030004 -77.83984375 17.59375 C-76.23600078 17.57412271 -74.6321597 17.55434154 -73.02832031 17.53442383 C-72.19675415 17.5293985 -71.36518799 17.52437317 -70.50842285 17.51919556 C-46.37580464 17.3390116 -24.44837387 13.74570188 -1 8 C-0.67 5.36 -0.34 2.72 0 0 Z" transform="translate(373,417)"/><path fill="#F2A01F" d="M0 0 C1.67449219 0.48919922 1.67449219 0.48919922 3.3828125 0.98828125 C4.96332869 1.43044947 6.54407107 1.87180975 8.125 2.3125 C8.846875 2.52583984 9.56875 2.73917969 10.3125 2.95898438 C27.84103143 7.77214669 45.91663601 8.49279869 63.98535156 8.39111328 C67.36564669 8.37504446 70.74474087 8.39106151 74.125 8.41015625 C94.68074467 8.43094864 114.42109308 6.40297875 134.2734375 0.98828125 C138 0 138 0 140 0 C141.29511008 2.59022016 141.12949733 4.48487866 141.1328125 7.3828125 C141.13410156 8.46820313 141.13539063 9.55359375 141.13671875 10.671875 C141.13285156 11.81140625 141.12898437 12.9509375 141.125 14.125 C141.12886719 15.24132812 141.13273438 16.35765625 141.13671875 17.5078125 C141.12973016 23.43413711 140.90246593 29.14113387 140 35 C133.40326952 37.36405779 126.78425114 39.08903081 119.9375 40.5625 C119.01517578 40.77068359 118.09285156 40.97886719 117.14257812 41.19335938 C101.9779618 44.49091398 87.22640414 45.34901765 71.75610352 45.31567383 C68.70227248 45.31251528 65.64941527 45.33606245 62.59570312 45.36132812 C50.1157419 45.40215555 38.23731344 44.45840132 26 42 C24.84846436 41.76933838 23.69692871 41.53867676 22.51049805 41.30102539 C19.66324426 40.69637699 16.83140171 40.04953982 14 39.375 C13.0615625 39.1584375 12.123125 38.941875 11.15625 38.71875 C7.71510905 37.91779478 4.35369166 37.11789722 1 36 C-0.79095553 28.27650427 -1.19290721 20.83945896 -1.1875 12.9375 C-1.18814453 12.0091333 -1.18878906 11.0807666 -1.18945312 10.12426758 C-1.13517521 3.40552564 -1.13517521 3.40552564 0 0 Z" transform="translate(233,390)"/><path fill="#FCDBA2" d="M0 0 C6.37722934 4.75074333 11.48961509 10.26954295 13.0625 18.25 C14.39547794 30.38009926 11.72760164 39.70236426 4.4375 49.4375 C-6.86778904 62.62700388 -21.00803962 70.03764874 -37.9375 73.25 C-41.30983329 73.50717671 -44.56849132 73.53537485 -47.9375 73.25 C-48.09605469 72.48558594 -48.25460937 71.72117187 -48.41796875 70.93359375 C-52.45573298 52.39557125 -58.90674746 35.18861153 -70.8203125 20.23046875 C-71.9375 18.25 -71.9375 18.25 -71.74023438 16.30151367 C-70.71015153 13.6689753 -69.58061733 12.95718471 -67.2109375 11.4453125 C-66.43339111 10.94692871 -65.65584473 10.44854492 -64.85473633 9.93505859 C-64.01579834 9.42023926 -63.17686035 8.90541992 -62.3125 8.375 C-61.45744873 7.84342285 -60.60239746 7.3118457 -59.72143555 6.76416016 C-52.39089662 2.31549775 -45.07726435 -1.05351441 -36.9375 -3.75 C-36.17308594 -4.01296875 -35.40867187 -4.2759375 -34.62109375 -4.546875 C-23.56503407 -7.85252517 -9.74113185 -6.12299716 0 0 Z" transform="translate(439.9375,315.75)"/><path fill="#FCDBA2" d="M0 0 C4.29430708 2.35616849 8.26934499 5.09049065 12.09667969 8.15039062 C10.56087352 12.45714867 8.32111921 16.17002213 5.90917969 20.02539062 C-2.65544174 34.06776871 -9.27838218 48.57602169 -10.90332031 65.15039062 C-12.61460953 66.86167985 -14.74854202 66.40410161 -17.09082031 66.46289062 C-33.76807159 66.28463022 -47.99513798 58.33630373 -59.90332031 47.15039062 C-64.60731805 42.01875673 -68.16796793 36.54204317 -70.90332031 30.15039062 C-71.31582031 29.24289062 -71.72832031 28.33539063 -72.15332031 27.40039062 C-74.4823483 17.307936 -72.90232273 8.03609015 -67.72363281 -0.88085938 C-51.50552004 -22.76091684 -19.19081046 -9.9544591 0 0 Z" transform="translate(225.9033203125,322.849609375)"/><path fill="#F2A01F" d="M0 0 C11.92574469 8.61973403 22.43471495 19.80657643 28.31640625 33.44140625 C8.02576132 39.23286563 -12.98945407 39.73957925 -33.93359375 39.81640625 C-35.37567703 39.82805313 -35.37567703 39.82805313 -36.84689331 39.8399353 C-55.42265979 39.95811107 -73.69016173 38.22833817 -91.68359375 33.44140625 C-88.61849833 26.54494156 -84.5622426 21.17229679 -79.68359375 15.44140625 C-78.64525391 14.18263672 -78.64525391 14.18263672 -77.5859375 12.8984375 C-68.67337363 2.46539994 -58.39044673 -4.47929615 -45.68359375 -9.55859375 C-44.54921875 -10.01234375 -43.41484375 -10.46609375 -42.24609375 -10.93359375 C-26.23858142 -13.74192925 -13.03951231 -9.0405079 0 0 Z" transform="translate(334.68359375,325.55859375)"/><path fill="#391E13" d="M0 0 C1.08853271 -0.0095874 2.17706543 -0.0191748 3.29858398 -0.02905273 C24.4061962 0.07576929 24.4061962 0.07576929 34.4140625 3.30078125 C35.48914063 3.63940186 35.48914063 3.63940186 36.5859375 3.98486328 C64.54003653 12.95771254 89.07883706 31.53917035 102.84765625 57.828125 C103.60857615 59.3559246 104.36011182 60.88843887 105.1015625 62.42578125 C105.6289502 63.5099231 105.6289502 63.5099231 106.16699219 64.6159668 C107.85942983 68.31391684 108.68407022 70.42515079 107.4140625 74.30078125 C106.93195313 73.16898437 106.44984375 72.0371875 105.953125 70.87109375 C105.31535447 69.38921517 104.67731989 67.9074502 104.0390625 66.42578125 C103.72195313 65.67941406 103.40484375 64.93304688 103.078125 64.1640625 C102.76875 63.44863281 102.459375 62.73320313 102.140625 61.99609375 C101.85783691 61.33625488 101.57504883 60.67641602 101.28369141 59.99658203 C100.42355347 58.10591426 100.42355347 58.10591426 98.4140625 56.30078125 C96.73876352 57.28625124 95.07432606 58.29018604 93.4140625 59.30078125 C92.4240625 59.85765625 91.4340625 60.41453125 90.4140625 60.98828125 C86.62350189 63.91017172 83.94923993 66.70304174 82.4140625 71.30078125 C82.58890881 74.80769873 83.34112238 77.96578267 84.4140625 81.30078125 C81.96315759 78.26769658 80.35443098 75.211381 78.7265625 71.67578125 C75.68286352 65.49044249 71.9795748 60.44147621 67.4140625 55.30078125 C66.61742187 54.38039063 66.61742187 54.38039063 65.8046875 53.44140625 C51.09849644 37.57036838 29.93366138 29.59056332 8.73095703 28.67504883 C3.29258065 28.49504274 -2.14504047 28.3695558 -7.5859375 28.30078125 C-7.5859375 27.97078125 -7.5859375 27.64078125 -7.5859375 27.30078125 C-2.79000133 26.40059765 1.92805864 26.00638363 6.7890625 25.73828125 C7.52511719 25.69509766 8.26117188 25.65191406 9.01953125 25.60742188 C10.81754318 25.50234326 12.61578208 25.40116032 14.4140625 25.30078125 C14.06619542 23.3254138 14.06619542 23.3254138 13.4140625 21.30078125 C12.7540625 20.97078125 12.0940625 20.64078125 11.4140625 20.30078125 C12.0740625 20.30078125 12.7340625 20.30078125 13.4140625 20.30078125 C13.4140625 19.64078125 13.4140625 18.98078125 13.4140625 18.30078125 C14.0740625 18.30078125 14.7340625 18.30078125 15.4140625 18.30078125 C15.4140625 17.64078125 15.4140625 16.98078125 15.4140625 16.30078125 C16.0740625 16.30078125 16.7340625 16.30078125 17.4140625 16.30078125 C16.7540625 15.64078125 16.0940625 14.98078125 15.4140625 14.30078125 C14.4240625 14.79578125 14.4240625 14.79578125 13.4140625 15.30078125 C13.0840625 13.65078125 12.7540625 12.00078125 12.4140625 10.30078125 C11.4240625 9.97078125 10.4340625 9.64078125 9.4140625 9.30078125 C9.0840625 6.99078125 8.7540625 4.68078125 8.4140625 2.30078125 C2.4740625 2.30078125 -3.4659375 2.30078125 -9.5859375 2.30078125 C-5.67539949 0.34551224 -4.19243831 0.03690891 0 0 Z" transform="translate(296.5859375,44.69921875)"/><path fill="#402419" d="M0 0 C2.61277503 0.03145553 5.22494385 0.04101856 7.83789062 0.046875 C9.5253979 0.05603743 11.21289913 0.06641076 12.90039062 0.078125 C13.66825897 0.08237488 14.43612732 0.08662476 15.2272644 0.09100342 C29.30690039 0.27504086 40.86975528 5.04944119 53.72070312 10.28125 C53.72070312 10.94125 53.72070312 11.60125 53.72070312 12.28125 C54.46320313 12.57 55.20570313 12.85875 55.97070312 13.15625 C58.28810109 14.10427644 60.49987427 15.12970911 62.72070312 16.28125 C62.72070312 16.94125 62.72070312 17.60125 62.72070312 18.28125 C63.48382813 18.57 64.24695313 18.85875 65.03320312 19.15625 C67.72070312 20.28125 67.72070312 20.28125 70.72070312 22.28125 C70.72070312 22.94125 70.72070312 23.60125 70.72070312 24.28125 C72.04070312 24.61125 73.36070312 24.94125 74.72070312 25.28125 C74.72070312 25.94125 74.72070312 26.60125 74.72070312 27.28125 C75.33945312 27.52875 75.95820313 27.77625 76.59570312 28.03125 C79.10780608 29.50895762 79.48177656 30.72080177 80.72070312 33.28125 C81.71070313 33.61125 82.70070313 33.94125 83.72070312 34.28125 C83.72070312 34.94125 83.72070312 35.60125 83.72070312 36.28125 C84.71070313 36.61125 85.70070313 36.94125 86.72070312 37.28125 C88.56786871 39.59990534 90.25259103 41.89353531 91.90820312 44.34375 C92.63632202 45.41653198 92.63632202 45.41653198 93.37915039 46.51098633 C102.90977239 60.85793979 110.37556873 76.58037962 111.03710938 94.0625 C111.07932617 95.14563477 111.12154297 96.22876953 111.16503906 97.34472656 C111.2040332 98.4787793 111.24302734 99.61283203 111.28320312 100.78125 C111.32348633 101.94366211 111.36376953 103.10607422 111.40527344 104.30371094 C111.48162876 106.59886208 111.55512156 108.89411058 111.62548828 111.18945312 C111.68271431 113.04768503 111.74367593 114.90581535 111.81201172 116.76367188 C111.88128511 118.68567752 111.92737901 120.60848441 111.97070312 122.53125 C112.009375 124.02398437 112.009375 124.02398437 112.04882812 125.546875 C111.51485539 129.99664776 109.57495645 133.26682418 106.72070312 136.65625 C102.13231429 139.14162728 97.82000527 139.15605697 92.72070312 138.28125 C88.78382257 136.31280972 86.35661212 133.33412401 84.72070312 129.28125 C84.41772461 126.78271484 84.41772461 126.78271484 84.34179688 123.9921875 C84.30763672 122.96738281 84.27347656 121.94257813 84.23828125 120.88671875 C84.19864258 119.28763672 84.19864258 119.28763672 84.15820312 117.65625 C84.29736129 103.75369978 84.29736129 103.75369978 80.97070312 90.46875 C80.62136719 89.65792969 80.27203125 88.84710938 79.91210938 88.01171875 C79.51894531 87.11066406 79.12578125 86.20960938 78.72070312 85.28125 C77.76909585 82.95363442 76.83190019 80.62008185 75.90820312 78.28125 C75.24884766 76.6415625 75.24884766 76.6415625 74.57617188 74.96875 C73.72070312 72.28125 73.72070312 72.28125 74.72070312 70.28125 C76.37070312 73.25125 78.02070313 76.22125 79.72070312 79.28125 C79.26695312 78.3325 78.81320312 77.38375 78.34570312 76.40625 C77.51155284 73.57361467 77.65529607 72.44260344 78.78320312 69.66015625 C83.14150942 62.15297366 83.14150942 62.15297366 87.72070312 60.28125 C88.42710937 59.92804688 89.13351562 59.57484375 89.86132812 59.2109375 C91.81445312 58.234375 93.76757812 57.2578125 95.72070312 56.28125 C98.36070312 61.23125 101.00070312 66.18125 103.72070312 71.28125 C97.26875626 56.64425352 89.72899897 44.99650063 78.72070312 33.28125 C77.92986328 32.37632813 77.92986328 32.37632813 77.12304688 31.453125 C61.94749562 14.84152414 35.89356326 3.57195285 13.67797852 2.07641602 C10.48078379 1.97813698 7.294346 1.95206806 4.09570312 1.96875 C2.38664795 1.97720947 2.38664795 1.97720947 0.64306641 1.98583984 C-27.0654223 2.3815075 -50.96855108 12.50961349 -71.27929688 31.28125 C-72.07722656 31.98636719 -72.87515625 32.69148438 -73.69726562 33.41796875 C-85.53471301 44.41736676 -92.95257694 58.63371503 -99.27929688 73.28125 C-100.77280813 68.80071624 -98.7037254 66.30491789 -96.73242188 62.18359375 C-90.74073361 50.2163239 -83.49464246 40.01451229 -74.27929688 30.28125 C-73.73789063 29.69214844 -73.19648438 29.10304688 -72.63867188 28.49609375 C-71.27929688 27.28125 -71.27929688 27.28125 -69.27929688 27.28125 C-69.27929688 26.62125 -69.27929688 25.96125 -69.27929688 25.28125 C-67.38085938 23.5546875 -67.38085938 23.5546875 -64.90429688 21.65625 C-64.0921875 21.02460937 -63.28007812 20.39296875 -62.44335938 19.7421875 C-60.27929688 18.28125 -60.27929688 18.28125 -58.27929688 18.28125 C-58.27929688 17.62125 -58.27929688 16.96125 -58.27929688 16.28125 C-56.990162 15.60970067 -55.69789484 14.94416141 -54.40429688 14.28125 C-53.685 13.91 -52.96570313 13.53875 -52.22460938 13.15625 C-50.27929688 12.28125 -50.27929688 12.28125 -48.27929688 12.28125 C-48.27929688 11.62125 -48.27929688 10.96125 -48.27929688 10.28125 C-47.63863281 10.02730469 -46.99796875 9.77335937 -46.33789062 9.51171875 C-45.47292969 9.16753906 -44.60796875 8.82335938 -43.71679688 8.46875 C-42.79253906 8.10265625 -41.86828125 7.7365625 -40.91601562 7.359375 C-38.92537826 6.5454255 -36.96754512 5.65060012 -35.02929688 4.71875 C-23.77821396 -0.02321544 -11.97909332 -0.14531122 0 0 Z" transform="translate(300.279296875,43.71875)"/><path fill="#FEF9F0" d="M0 0 C0.33 0 0.66 0 1 0 C1.67609726 4.17673569 2.35151781 8.35358013 3.02636719 12.53051758 C3.25503178 13.94525967 3.48386703 15.35997419 3.71289062 16.7746582 C5.8199011 29.79099266 7.88948395 42.79903767 9.53515625 55.8828125 C9.91162818 59.02296149 9.91162818 59.02296149 11 62 C12.58268537 82.07936561 9.89124862 97.85603158 -3.28515625 113.7578125 C-15.4627904 126.70768687 -31.59129715 134.1811274 -49.29542696 135.18728507 C-53.03634177 135.25940811 -56.77461536 135.27190876 -60.51594543 135.26069641 C-61.95914347 135.26372242 -63.40233991 135.26761414 -64.84553355 135.27228898 C-68.78423096 135.28251993 -72.72283684 135.28039975 -76.66154158 135.27610838 C-80.92001604 135.27363219 -85.17846896 135.28266639 -89.43693542 135.29014587 C-97.76943577 135.30287029 -106.10190385 135.30468937 -114.43441228 135.30234561 C-121.21034941 135.30055971 -127.98627678 135.30231792 -134.76221275 135.30657005 C-136.21097864 135.30746284 -136.21097864 135.30746284 -137.68901252 135.30837366 C-139.65138541 135.30958546 -141.6137583 135.31079959 -143.57613119 135.31201603 C-161.96369644 135.32288294 -180.35124333 135.32073314 -198.73880961 135.31463119 C-215.54164431 135.30946316 -232.34442102 135.32071597 -249.14724425 135.33972941 C-266.42103514 135.35912517 -283.69479861 135.36736073 -300.96860045 135.36360615 C-310.65822775 135.3616967 -320.3478057 135.36415668 -330.03742409 135.37832069 C-338.28665986 135.39025765 -346.5358159 135.39161349 -354.78505281 135.37953053 C-358.98934369 135.37365799 -363.19348891 135.37249716 -367.39776993 135.38453293 C-371.25505463 135.3954465 -375.11207301 135.39222405 -378.96934553 135.37827124 C-381.00742067 135.37440339 -383.04550788 135.38512649 -385.08355457 135.39656812 C-396.92460753 135.32776664 -408.47201293 133.6674383 -419 128 C-419.80953125 127.56816406 -420.6190625 127.13632812 -421.453125 126.69140625 C-436.9943979 117.89580855 -446.89134136 104.3695669 -452.39794922 87.49487305 C-453.44597143 83.1519132 -453.31458551 78.87897555 -453.1875 74.4375 C-453.17396484 73.52419922 -453.16042969 72.61089844 -453.14648438 71.66992188 C-453.11155315 69.44596741 -453.06251586 67.22332048 -453 65 C-452.67 65 -452.34 65 -452 65 C-451.96261719 66.02738281 -451.92523438 67.05476563 -451.88671875 68.11328125 C-451.11784285 85.60891466 -446.57564403 101.10732293 -434 114 C-418.61741568 127.46782907 -402.2472514 131.47985124 -382.10551453 131.38768005 C-380.65773843 131.39186406 -379.20996561 131.39734736 -377.76219875 131.40399987 C-373.82463091 131.41833363 -369.88727452 131.414248 -365.94969571 131.40683305 C-361.68711696 131.40207344 -357.42458215 131.41463579 -353.16201782 131.42485046 C-344.82690391 131.44198973 -336.49186555 131.44288858 -328.1567386 131.43763756 C-321.37708101 131.43358531 -314.59744562 131.43505191 -307.81778908 131.44038582 C-306.85044243 131.44113424 -305.88309578 131.44188266 -304.8864356 131.44265376 C-302.92084751 131.44418535 -300.95525941 131.4457237 -298.98967133 131.44726873 C-280.58339435 131.46097629 -262.17715995 131.45556849 -243.77088396 131.44408352 C-226.96054767 131.43415425 -210.1503215 131.44708964 -193.3400022 131.47101771 C-176.04688569 131.49544607 -158.75382039 131.50500733 -141.46068698 131.49836498 C-131.76484748 131.4948809 -122.06909261 131.49705105 -112.37326622 131.51461601 C-104.11904249 131.52938486 -95.86496298 131.52991259 -87.61074194 131.5125451 C-83.40602002 131.50407088 -79.20155522 131.50179708 -74.99684715 131.51719666 C-49.86484371 131.60256876 -26.43713008 131.35364141 -7 113 C4.7987459 100.71666275 9.58810982 85.98268674 9.31640625 69.19140625 C8.90316215 62.083262 7.46167828 55.0815891 6.22265625 48.08203125 C4.88541394 40.48011141 3.72011149 32.85569731 2.58920288 25.2208252 C2.36473473 23.70983041 2.13806277 22.19916122 1.90908813 20.68884277 C1.58530562 18.55240535 1.2683227 16.41506255 0.953125 14.27734375 C0.67710449 12.42484009 0.67710449 12.42484009 0.39550781 10.53491211 C-0.0009745 6.99129028 -0.06969017 3.56248145 0 0 Z" transform="translate(524,428)"/><path fill="#F2A21F" d="M0 0 C-11.0152698 10.56566695 -22.8708741 18.93815782 -36 26.6875 C-36.89638184 27.22938965 -37.79276367 27.7712793 -38.71630859 28.32958984 C-45.01315065 31.95468549 -45.01315065 31.95468549 -49.0625 32.140625 C-53.29018995 30.49902199 -57.1087491 28.38167458 -61 26.0625 C-61.836521 25.56959473 -62.67304199 25.07668945 -63.53491211 24.56884766 C-74.9494383 17.75176321 -85.36576199 10.19026391 -95 1 C-91.95142331 0.0567107 -89.79179282 0.01122262 -86.66015625 0.55859375 C-60.84090416 4.6425407 -29.29616345 6.61705382 -3.85375977 -0.60961914 C-2 -1 -2 -1 0 0 Z" transform="translate(351,465)"/><path fill="#FBF4E8" d="M0 0 C7.39535248 6.22947002 13.57835635 12.80012257 18.52734375 21.12890625 C18.19734375 21.78890625 17.86734375 22.44890625 17.52734375 23.12890625 C16.3764045 21.69549105 15.2317634 20.25701716 14.08984375 18.81640625 C13.13271484 17.61564453 13.13271484 17.61564453 12.15625 16.390625 C10.52734375 14.12890625 10.52734375 14.12890625 9.52734375 11.12890625 C8.86734375 11.12890625 8.20734375 11.12890625 7.52734375 11.12890625 C5.40234375 9.25390625 5.40234375 9.25390625 3.52734375 7.12890625 C3.52734375 6.46890625 3.52734375 5.80890625 3.52734375 5.12890625 C2.96015625 4.8659375 2.39296875 4.60296875 1.80859375 4.33203125 C-0.64371069 3.03869261 -2.74459347 1.52767271 -4.97265625 -0.12109375 C-14.43835592 -6.78727463 -24.33305334 -10.85411796 -35.47265625 -13.87109375 C-36.07529297 -14.04543945 -36.67792969 -14.21978516 -37.29882812 -14.39941406 C-56.13761491 -18.48707535 -77.02230883 -14.59584692 -93.53515625 -5.05859375 C-94.43363281 -4.47464844 -95.33210938 -3.89070313 -96.2578125 -3.2890625 C-98.47265625 -1.87109375 -98.47265625 -1.87109375 -101.47265625 -0.87109375 C-101.47265625 -0.21109375 -101.47265625 0.44890625 -101.47265625 1.12890625 C-103.46596467 2.47222279 -105.46650491 3.80484637 -107.47265625 5.12890625 C-108.13265625 6.11890625 -108.79265625 7.10890625 -109.47265625 8.12890625 C-110.13265625 8.12890625 -110.79265625 8.12890625 -111.47265625 8.12890625 C-111.80265625 9.11890625 -112.13265625 10.10890625 -112.47265625 11.12890625 C-113.13265625 11.12890625 -113.79265625 11.12890625 -114.47265625 11.12890625 C-114.7459375 11.70898438 -115.01921875 12.2890625 -115.30078125 12.88671875 C-116.45470193 15.09455364 -117.7636061 16.98790685 -119.22265625 19.00390625 C-127.19444722 30.87388351 -130.72101276 44.11575831 -132.47265625 58.12890625 C-79.67265625 58.12890625 -26.87265625 58.12890625 27.52734375 58.12890625 C27.52734375 54.82890625 27.52734375 51.52890625 27.52734375 48.12890625 C27.85734375 48.12890625 28.18734375 48.12890625 28.52734375 48.12890625 C28.52734375 52.08890625 28.52734375 56.04890625 28.52734375 60.12890625 C-24.93265625 60.12890625 -78.39265625 60.12890625 -133.47265625 60.12890625 C-133.47265625 40.32048808 -126.9341806 22.80016605 -113.47265625 8.12890625 C-112.80878906 7.37351562 -112.14492187 6.618125 -111.4609375 5.83984375 C-102.48569011 -3.81559799 -90.91146316 -10.65874878 -78.47265625 -14.87109375 C-77.57417969 -15.18949219 -76.67570312 -15.50789063 -75.75 -15.8359375 C-49.45036179 -23.51698931 -21.3111957 -16.37597143 0 0 Z" transform="translate(355.47265625,90.87109375)"/><path fill="#381D14" d="M0 0 C0.99 1.32 1.98 2.64 3 4 C4.65 3.67 6.3 3.34 8 3 C8 3.66 8 4.32 8 5 C8.99 5.33 9.98 5.66 11 6 C9.68 6.33 8.36 6.66 7 7 C7.33 8.32 7.66 9.64 8 11 C6.68 10.34 5.36 9.68 4 9 C4 12.3 4 15.6 4 19 C5.32 18.01 6.64 17.02 8 16 C8.99 16 9.98 16 11 16 C11 16.66 11 17.32 11 18 C9 19.625 9 19.625 7 21 C7.55728913 24.34373475 8.35173889 27.03312999 10 30 C9.34 30.33 8.68 30.66 8 31 C8.66 31.66 9.32 32.32 10 33 C13.18490007 33.2773501 13.18490007 33.2773501 16 31 C16.66 30.34 17.32 29.68 18 29 C21 29 21 29 24 30 C24.33 29.01 24.66 28.02 25 27 C25.33 26.34 25.66 25.68 26 25 C26.23274209 22.12089412 26.41972757 19.25853505 26.5625 16.375 C26.60568359 15.57320312 26.64886719 14.77140625 26.69335938 13.9453125 C26.79951457 11.9637489 26.90026855 9.98189729 27 8 C27.33 8 27.66 8 28 8 C28.57218021 15.86747787 29.08145536 23.737111 29.25 31.625 C29.27578125 32.71039063 29.3015625 33.79578125 29.328125 34.9140625 C28.83331519 39.56763094 26.9846725 42.8307014 24 46.375 C19.41161117 48.86037728 15.09930215 48.87480697 10 48 C6.06071444 46.03035722 3.64367824 43.05139744 2 39 C1.69702148 36.58081055 1.69702148 36.58081055 1.62109375 33.88671875 C1.58749756 32.89220703 1.55390137 31.89769531 1.51928711 30.87304688 C1.49229736 29.82181641 1.46530762 28.77058594 1.4375 27.6875 C1.36604656 25.52469075 1.2931298 23.36192934 1.21875 21.19921875 C1.18394531 20.14395996 1.14914062 19.08870117 1.11328125 18.00146484 C0.88645282 11.99148909 0.45167916 5.99676164 0 0 Z" transform="translate(383,134)"/><path fill="#F6F1EA" d="M0 0 C2.61277503 0.03145553 5.22494385 0.04101856 7.83789062 0.046875 C9.5253979 0.05603743 11.21289913 0.06641076 12.90039062 0.078125 C13.66825897 0.08237488 14.43612732 0.08662476 15.2272644 0.09100342 C29.30690039 0.27504086 40.86975528 5.04944119 53.72070312 10.28125 C53.72070312 10.94125 53.72070312 11.60125 53.72070312 12.28125 C54.46320313 12.57 55.20570313 12.85875 55.97070312 13.15625 C58.28810109 14.10427644 60.49987427 15.12970911 62.72070312 16.28125 C62.72070312 16.94125 62.72070312 17.60125 62.72070312 18.28125 C63.48382813 18.57 64.24695313 18.85875 65.03320312 19.15625 C67.72070312 20.28125 67.72070312 20.28125 70.72070312 22.28125 C70.72070312 22.94125 70.72070312 23.60125 70.72070312 24.28125 C72.04070312 24.61125 73.36070312 24.94125 74.72070312 25.28125 C74.72070312 25.94125 74.72070312 26.60125 74.72070312 27.28125 C75.33945312 27.52875 75.95820313 27.77625 76.59570312 28.03125 C79.10780608 29.50895762 79.48177656 30.72080177 80.72070312 33.28125 C81.71070313 33.61125 82.70070313 33.94125 83.72070312 34.28125 C83.72070312 34.94125 83.72070312 35.60125 83.72070312 36.28125 C84.71070313 36.61125 85.70070313 36.94125 86.72070312 37.28125 C88.56781883 39.59984273 90.25242665 41.89373696 91.90820312 44.34375 C92.39144043 45.0545874 92.87467773 45.7654248 93.37255859 46.49780273 C96.67337043 51.46102345 99.64682082 56.52979379 102.34570312 61.84375 C102.67594482 62.48513916 103.00618652 63.12652832 103.34643555 63.78735352 C105.412727 68.02432805 106.2798474 71.65226493 106.72070312 76.28125 C105.12666651 73.89019508 103.99164077 71.81483507 102.83789062 69.21875 C96.5624272 55.35714294 89.16834579 44.39984219 78.72070312 33.28125 C77.92986328 32.37632813 77.92986328 32.37632813 77.12304688 31.453125 C61.94749562 14.84152414 35.89356326 3.57195285 13.67797852 2.07641602 C10.48078379 1.97813698 7.294346 1.95206806 4.09570312 1.96875 C2.38664795 1.97720947 2.38664795 1.97720947 0.64306641 1.98583984 C-27.0654223 2.3815075 -50.96855108 12.50961349 -71.27929688 31.28125 C-72.07722656 31.98636719 -72.87515625 32.69148438 -73.69726562 33.41796875 C-85.53471301 44.41736676 -92.95257694 58.63371503 -99.27929688 73.28125 C-100.77280813 68.80071624 -98.7037254 66.30491789 -96.73242188 62.18359375 C-90.74073361 50.2163239 -83.49464246 40.01451229 -74.27929688 30.28125 C-73.73789063 29.69214844 -73.19648438 29.10304688 -72.63867188 28.49609375 C-71.27929688 27.28125 -71.27929688 27.28125 -69.27929688 27.28125 C-69.27929688 26.62125 -69.27929688 25.96125 -69.27929688 25.28125 C-67.38085938 23.5546875 -67.38085938 23.5546875 -64.90429688 21.65625 C-64.0921875 21.02460937 -63.28007812 20.39296875 -62.44335938 19.7421875 C-60.27929688 18.28125 -60.27929688 18.28125 -58.27929688 18.28125 C-58.27929688 17.62125 -58.27929688 16.96125 -58.27929688 16.28125 C-56.990162 15.60970067 -55.69789484 14.94416141 -54.40429688 14.28125 C-53.685 13.91 -52.96570313 13.53875 -52.22460938 13.15625 C-50.27929688 12.28125 -50.27929688 12.28125 -48.27929688 12.28125 C-48.27929688 11.62125 -48.27929688 10.96125 -48.27929688 10.28125 C-47.63863281 10.02730469 -46.99796875 9.77335937 -46.33789062 9.51171875 C-45.47292969 9.16753906 -44.60796875 8.82335938 -43.71679688 8.46875 C-42.79253906 8.10265625 -41.86828125 7.7365625 -40.91601562 7.359375 C-38.92537826 6.5454255 -36.96754512 5.65060012 -35.02929688 4.71875 C-23.77821396 -0.02321544 -11.97909332 -0.14531122 0 0 Z" transform="translate(300.279296875,43.71875)"/><path fill="#FCE6BE" d="M0 0 C0.33 0 0.66 0 1 0 C1.02686553 1.97909398 1.04633375 3.95828971 1.0625 5.9375 C1.07410156 7.03964844 1.08570313 8.14179688 1.09765625 9.27734375 C1 12 1 12 0 13 C-1.48686052 13.10168517 -2.9784292 13.13568064 -4.46875 13.1418457 C-5.89658813 13.15239738 -5.89658813 13.15239738 -7.35327148 13.16316223 C-8.9109021 13.16940865 -8.9109021 13.16940865 -10.5 13.17578125 C-12.68881151 13.19899711 -14.87761361 13.22311514 -17.06640625 13.24804688 C-20.52463917 13.28304527 -23.98253022 13.31243183 -27.44091797 13.32592773 C-30.77353847 13.3414873 -34.10514909 13.38177066 -37.4375 13.42578125 C-38.45972656 13.42387283 -39.48195312 13.42196442 -40.53515625 13.41999817 C-50.52555595 13.58860882 -58.71570709 17.11419138 -66 24 C-70.42576744 29.33391193 -72.32641326 35.36007864 -74 42 C-74.33 42 -74.66 42 -75 42 C-74.63609682 32.53851729 -70.64558464 24.07546385 -63.8125 17.5 C-53.25010007 8.00009 -39.24656198 9.54788225 -26.0625 9.8125 C-23.1104208 9.85511626 -20.15837372 9.89194005 -17.2061615 9.92399597 C-15.37969519 9.94557598 -13.55329458 9.97416956 -11.72706604 10.01069641 C-10.90198044 10.02368271 -10.07689484 10.03666901 -9.22680664 10.05004883 C-8.50497696 10.06433426 -7.78314728 10.07861969 -7.03944397 10.09333801 C-4.64363799 10.05110886 -4.64363799 10.05110886 -1 9 C-0.67 6.03 -0.34 3.06 0 0 Z" transform="translate(194,139)"/><path fill="#FEF6E9" d="M0 0 C6.65327986 0.04188164 13.30573754 0.11441355 19.95849609 0.20751953 C22.21818611 0.23561629 24.47797233 0.25688657 26.73779297 0.27099609 C30.00017152 0.29258219 33.26140686 0.33931349 36.5234375 0.390625 C38.02093033 0.39246796 38.02093033 0.39246796 39.54867554 0.39434814 C48.10089814 0.56996878 55.80796675 2.76675576 62.625 8.125 C63.60339844 8.87136719 63.60339844 8.87136719 64.6015625 9.6328125 C65.29378906 10.30957031 65.29378906 10.30957031 66 11 C66 11.66 66 12.32 66 13 C66.99 13.33 67.98 13.66 69 14 C70.421875 16.36328125 70.421875 16.36328125 71.75 19.3125 C72.19859375 20.27800781 72.6471875 21.24351562 73.109375 22.23828125 C74.02884475 25.08944404 74.06798426 26.25840627 73 29 C72.62488281 28.19175781 72.24976563 27.38351563 71.86328125 26.55078125 C66.96493522 16.32224507 61.5847353 10.61177872 51.375 5.75 C45.34301867 3.84516379 39.27203944 3.79868863 33.0078125 3.68359375 C31.58890213 3.6524221 31.58890213 3.6524221 30.1413269 3.62062073 C27.13595459 3.55552415 24.13049899 3.49642664 21.125 3.4375 C19.08072074 3.3942768 17.03644974 3.35066132 14.9921875 3.30664062 C9.99487584 3.1998839 4.99748084 3.09850529 0 3 C0 2.01 0 1.02 0 0 Z" transform="translate(412,148)"/><path fill="#FAF7F0" d="M0 0 C25.45706459 -0.95634111 46.42891449 5.11738026 65.68359375 22.41015625 C70.95277098 27.47576942 75.26599382 32.71594082 79 39 C78.505 39.99 78.505 39.99 78 41 C76.84906075 39.5665848 75.70441965 38.12811091 74.5625 36.6875 C73.92441406 35.88699219 73.28632813 35.08648437 72.62890625 34.26171875 C71 32 71 32 70 29 C69.34 29 68.68 29 68 29 C65.875 27.125 65.875 27.125 64 25 C64 24.34 64 23.68 64 23 C63.4328125 22.73703125 62.865625 22.4740625 62.28125 22.203125 C59.82894556 20.90978636 57.72806278 19.39876646 55.5 17.75 C46.03430033 11.08381912 36.13960291 7.01697579 25 4 C24.37996094 3.81050781 23.75992187 3.62101562 23.12109375 3.42578125 C19.79935868 2.75898729 16.43877251 2.66619755 13.0625 2.5 C8.63550452 2.28088198 4.33036298 2.01691498 0 1 C0 0.67 0 0.34 0 0 Z" transform="translate(295,73)"/><path fill="#261212" d="M0 0 C0.33 0 0.66 0 1 0 C1.11681812 3.54138618 1.187455 7.0822724 1.25 10.625 C1.30027344 12.12353516 1.30027344 12.12353516 1.3515625 13.65234375 C1.43023265 19.59194002 1.232268 23.42737478 -3 28 C-7.37260975 31.09391201 -12.87641131 30.6518175 -18 30 C-21.1875 28 -21.1875 28 -23 26 C-22.67 25.34 -22.34 24.68 -22 24 C-21.38125 24.495 -20.7625 24.99 -20.125 25.5 C-18.16119096 27.19222773 -18.16119096 27.19222773 -16 27 C-16 26.01 -16 25.02 -16 24 C-14.02 24 -12.04 24 -10 24 C-9.67 23.01 -9.34 22.02 -9 21 C-8.67 21.66 -8.34 22.32 -8 23 C-6.02 22.01 -4.04 21.02 -2 20 C-1.67 20.33 -1.34 20.66 -1 21 C-0.67 14.07 -0.34 7.14 0 0 Z" transform="translate(220,152)"/><path fill="#F9F5EB" d="M0 0 C-2.7915711 2.7915711 -5.94649208 2.98156347 -9.6875 3.75 C-23.68963836 6.86323352 -35.80132418 12.5943324 -48 20 C-48.33 19.34 -48.66 18.68 -49 18 C-46.45217026 15.02753198 -43.54659117 13.58464712 -40 12 C-39.34 12 -38.68 12 -38 12 C-38 11.34 -38 10.68 -38 10 C-37.35933594 9.74605469 -36.71867188 9.49210937 -36.05859375 9.23046875 C-35.19363281 8.88628906 -34.32867187 8.54210938 -33.4375 8.1875 C-32.51324219 7.82140625 -31.58898437 7.4553125 -30.63671875 7.078125 C-28.64608139 6.2641755 -26.68824824 5.36935012 -24.75 4.4375 C-17.04522666 1.09876489 -8.33255932 -0.22319355 0 0 Z" transform="translate(290,44)"/><path fill="#FEF8EB" d="M0 0 C0.33 0.66 0.66 1.32 1 2 C-0.12535156 2.20302734 -0.12535156 2.20302734 -1.2734375 2.41015625 C-10.98823717 4.45344535 -18.52803681 8.10894545 -24.4375 16.3125 C-27.24499324 20.92537842 -28.75554693 25.77111387 -30 31 C-30.33 31 -30.66 31 -31 31 C-30.63147004 21.41822105 -26.59909202 12.9689008 -19.5625 6.4375 C-13.19719917 1.31758412 -8.18227659 -0.43064614 0 0 Z" transform="translate(150,150)"/><path fill="#F6AD1F" d="M0 0 C2.75125089 0.28233361 5.50061337 0.57547333 8.25 0.875 C9.02730469 0.95363281 9.80460937 1.03226562 10.60546875 1.11328125 C17.72431144 1.90426377 17.72431144 1.90426377 21 4 C17.34279543 5.05496286 13.69314372 6.07671407 10 7 C12.64 8.98 15.28 10.96 18 13 C17.01 13.33 16.02 13.66 15 14 C12.66527552 12.32256738 10.57841315 10.64832343 8.4375 8.75 C7.84775391 8.24597656 7.25800781 7.74195313 6.65039062 7.22265625 C3.96558378 4.89521278 1.9952931 2.99293965 0 0 Z" transform="translate(256,465)"/><path fill="#231009" d="M0 0 C0.66 0.33 1.32 0.66 2 1 C0.63875 2.3921875 0.63875 2.3921875 -0.75 3.8125 C-7.5370518 11.82186445 -8.76757037 20.80434829 -8 31 C-7.75592355 33.36874191 -7.42630378 35.65532919 -7 38 C-10.62668187 34.37331813 -10.16027664 30.26170636 -10.1875 25.3125 C-10.15739207 19.53779865 -9.48339025 14.56271344 -8 9 C-8 8.34 -8 7.68 -8 7 C-9.32 6.67 -10.64 6.34 -12 6 C-10.8125 4.4375 -10.8125 4.4375 -9 3 C-8.195625 3.185625 -7.39125 3.37125 -6.5625 3.5625 C-5.716875 3.706875 -4.87125 3.85125 -4 4 C-1.66545339 2.16641665 -1.66545339 2.16641665 0 0 Z" transform="translate(162,316)"/><path fill="#22110F" d="M0 0 C0.99 1.32 1.98 2.64 3 4 C4.65 3.67 6.3 3.34 8 3 C8 3.66 8 4.32 8 5 C8.99 5.33 9.98 5.66 11 6 C9.68 6.33 8.36 6.66 7 7 C7.33 8.32 7.66 9.64 8 11 C6.68 10.34 5.36 9.68 4 9 C3.67 18.24 3.34 27.48 3 37 C2.67 37 2.34 37 2 37 C1.97494385 36.41210693 1.9498877 35.82421387 1.92407227 35.21850586 C1.41874839 23.46772048 0.85879631 11.73079217 0 0 Z" transform="translate(383,134)"/><path fill="#251211" d="M0 0 C0.33 0.66 0.66 1.32 1 2 C1.99 1.67 2.98 1.34 4 1 C4.33 1.66 4.66 2.32 5 3 C6.98 3 8.96 3 11 3 C8.06479845 5.93520155 4.58030902 5.99682275 0.625 6.625 C-0.18050293 6.75688721 -0.98600586 6.88877441 -1.81591797 7.0246582 C-8.23729815 8.01467964 -14.50322743 8.34394678 -21 8 C-21 7.67 -21 7.34 -21 7 C-17.535 6.505 -17.535 6.505 -14 6 C-14 5.34 -14 4.68 -14 4 C-13.34 4 -12.68 4 -12 4 C-12 4.66 -12 5.32 -12 6 C-10.02 5.67 -8.04 5.34 -6 5 C-5.67 4.01 -5.34 3.02 -5 2 C-4.67 2.99 -4.34 3.98 -4 5 C-2.68 4.34 -1.36 3.68 0 3 C0 2.01 0 1.02 0 0 Z" transform="translate(340,460)"/><path fill="#2F1813" d="M0 0 C1.5 1.25 1.5 1.25 3 3 C3 4.32 3 5.64 3 7 C2.34 7 1.68 7 1 7 C1 7.66 1 8.32 1 9 C0.01 9 -0.98 9 -2 9 C-1.34 10.32 -0.68 11.64 0 13 C0.66 13 1.32 13 2 13 C2 13.66 2 14.32 2 15 C1.34 15 0.68 15 0 15 C0.350625 15.598125 0.70125 16.19625 1.0625 16.8125 C2 19 2 19 1 22 C-4.55580866 9.51480638 -4.55580866 9.51480638 -5 3 C-3.35 2.67 -1.7 2.34 0 2 C0 1.34 0 0.68 0 0 Z" transform="translate(221,428)"/><path fill="#2A1612" d="M0 0 C2.64180913 1.4014773 3.9695439 2.74393767 6 5 C5.67 6.32 5.34 7.64 5 9 C4.484375 8.030625 3.96875 7.06125 3.4375 6.0625 C1.23561704 2.64608309 1.23561704 2.64608309 -2.75 2.125 C-4.35875 2.063125 -4.35875 2.063125 -6 2 C-6.33 2.66 -6.66 3.32 -7 4 C-8.77734375 4.81640625 -8.77734375 4.81640625 -10.9375 5.5625 C-13.03793267 6.29822324 -15.00802626 7.00401313 -17 8 C-17 6.02 -17 4.04 -17 2 C-11.40202067 -0.55760891 -6.06738755 -0.84337506 0 0 Z" transform="translate(366,197)"/><path fill="#FBDEB2" d="M0 0 C0.33 0 0.66 0 1 0 C0.09540051 12.62589928 0.09540051 12.62589928 -0.5625 17.25 C-1.63536482 24.79494287 -1.63536482 24.79494287 0 32 C-0.66 32.66 -1.32 33.32 -2 34 C-2.33 34 -2.66 34 -3 34 C-3.33 35.98 -3.66 37.96 -4 40 C-4.33 40 -4.66 40 -5 40 C-5.10528188 34.58851145 -4.77126224 29.58182588 -3.90625 24.21875 C-3.73977966 23.17031921 -3.73977966 23.17031921 -3.56994629 22.10070801 C-3.2190893 19.89949661 -2.85970945 17.6997802 -2.5 15.5 C-2.25854601 13.99488277 -2.01765555 12.48967502 -1.77734375 10.984375 C-1.19139726 7.32184903 -0.59780654 3.66061113 0 0 Z M1 26 C1.66 26.33 2.32 26.66 3 27 C2.34 28.32 1.68 29.64 1 31 C0.4375 29.0625 0.4375 29.0625 0 27 C0.33 26.67 0.66 26.34 1 26 Z" transform="translate(77,452)"/><path fill="#311A12" d="M0 0 C-0.99 0.66 -1.98 1.32 -3 2 C-3 2.99 -3 3.98 -3 5 C-4.32 5.33 -5.64 5.66 -7 6 C-6.34 7.32 -5.68 8.64 -5 10 C-6.98 10.99 -6.98 10.99 -9 12 C-11 9 -11 9 -11 7 C-12.65 7.33 -14.3 7.66 -16 8 C-11.96722697 3.46313034 -6.35126345 -2.11708782 0 0 Z" transform="translate(348,201)"/><path fill="#EA9A1C" d="M0 0 C1.9191791 3.68088957 2.65272398 6.99819759 3.33984375 11.07421875 C3.55769531 11.70972656 3.77554688 12.34523438 4 13 C4.99 13.33 5.98 13.66 7 14 C6 17 6 17 4 19 C3.83312552 21.58354218 3.83312552 21.58354218 4 24 C3.34 24 2.68 24 2 24 C-0.16926659 20.74610012 -0.24080049 19.86604043 -0.1953125 16.11328125 C-0.18886719 15.17548828 -0.18242187 14.23769531 -0.17578125 13.27148438 C-0.15902344 12.29501953 -0.14226562 11.31855469 -0.125 10.3125 C-0.11597656 9.32443359 -0.10695312 8.33636719 -0.09765625 7.31835938 C-0.0740843 4.87866235 -0.04118022 2.43945303 0 0 Z" transform="translate(232,393)"/><path fill="#2C1612" d="M0 0 C0.99 0.33 1.98 0.66 3 1 C2.41992188 1.3403125 1.83984375 1.680625 1.2421875 2.03125 C-3.82703734 5.17651162 -7.3693552 8.21421955 -10.7109375 13.16796875 C-11.99427451 14.99186286 -13.38174243 16.47164563 -15 18 C-14.34 15.69 -13.68 13.38 -13 11 C-13.66 10.34 -14.32 9.68 -15 9 C-14.34 9 -13.68 9 -13 9 C-13 8.34 -13 7.68 -13 7 C-12.34 6.67 -11.68 6.34 -11 6 C-11 5.01 -11 4.02 -11 3 C-8.23735711 2.40267181 -5.83967231 2 -3 2 C-2.01 1.34 -1.02 0.68 0 0 Z" transform="translate(348,221)"/><path fill="#2A1613" d="M0 0 C1.22589844 0.01353516 1.22589844 0.01353516 2.4765625 0.02734375 C3.41628906 0.04474609 3.41628906 0.04474609 4.375 0.0625 C1.98926621 1.95463369 0.30324652 3.08641783 -2.625 4.0625 C-2.625 4.7225 -2.625 5.3825 -2.625 6.0625 C-4.605 7.0525 -4.605 7.0525 -6.625 8.0625 C-6.625 7.0725 -6.625 6.0825 -6.625 5.0625 C-7.285 5.0625 -7.945 5.0625 -8.625 5.0625 C-8.955 8.6925 -9.285 12.3225 -9.625 16.0625 C-11.625 14.0625 -11.625 14.0625 -12.0625 10.8125 C-11.48914033 5.8979885 -10.07597494 4.51347494 -6.625 1.0625 C-4.21954362 -0.14022819 -2.67503047 -0.03821472 0 0 Z" transform="translate(244.625,196.9375)"/><path fill="#5D3616" d="M0 0 C1.67642578 0.02030273 1.67642578 0.02030273 3.38671875 0.04101562 C6.13331211 0.07622836 8.87890289 0.12547904 11.625 0.1875 C11.625 0.5175 11.625 0.8475 11.625 1.1875 C10.58859375 1.22488281 9.5521875 1.26226562 8.484375 1.30078125 C7.11454816 1.36645788 5.74475809 1.43290464 4.375 1.5 C3.35212891 1.53383789 3.35212891 1.53383789 2.30859375 1.56835938 C-1.87539131 1.79177605 -4.28790924 2.33339723 -7.375 5.1875 C-8.69336295 5.88330267 -10.02291086 6.55974433 -11.375 7.1875 C-11.705 5.8675 -12.035 4.5475 -12.375 3.1875 C-14.025 3.8475 -15.675 4.5075 -17.375 5.1875 C-17.705 4.5275 -18.035 3.8675 -18.375 3.1875 C-12.56075788 -0.69886184 -6.80263077 -0.15624417 0 0 Z" transform="translate(299.375,434.8125)"/><path fill="#2E1813" d="M0 0 C0.66 0.33 1.32 0.66 2 1 C1.34 1.66 0.68 2.32 0 3 C2.475 6.465 2.475 6.465 5 10 C4.67 10.66 4.34 11.32 4 12 C3.34 11.67 2.68 11.34 2 11 C2 10.34 2 9.68 2 9 C0.02 9.99 0.02 9.99 -2 11 C-2.66 10.01 -3.32 9.02 -4 8 C-4.66 8.66 -5.32 9.32 -6 10 C-6.99 9.67 -7.98 9.34 -9 9 C-6.03 6.03 -3.06 3.06 0 0 Z" transform="translate(152,299)"/><path fill="#24120B" d="M0 0 C0.66 0.33 1.32 0.66 2 1 C1.319375 1.5775 0.63875 2.155 -0.0625 2.75 C-0.701875 3.4925 -1.34125 4.235 -2 5 C-1.86358623 7.21858253 -1.86358623 7.21858253 -1 9 C-2.26457031 8.6596875 -2.26457031 8.6596875 -3.5546875 8.3125 C-7.76317594 7.93077769 -10.45825445 9.17056996 -14.125 11 C-20.87742269 14.3260341 -20.87742269 14.3260341 -25 13 C-23.865625 12.56429688 -22.73125 12.12859375 -21.5625 11.6796875 C-13.60753269 8.55675684 -6.51653569 5.68463752 0 0 Z" transform="translate(434,374)"/><path fill="#F9F6EF" d="M0 0 C0.66 0.66 1.32 1.32 2 2 C-3.75 6 -3.75 6 -6 6 C-6 6.66 -6 7.32 -6 8 C-7.99330842 9.34331654 -9.99384866 10.67594012 -12 12 C-12.99 13.485 -12.99 13.485 -14 15 C-14.66 15 -15.32 15 -16 15 C-16.33 15.99 -16.66 16.98 -17 18 C-17.66 18 -18.32 18 -19 18 C-15.36090258 9.77088523 -7.44550458 4.55003058 0 0 Z" transform="translate(260,84)"/><path fill="#291513" d="M0 0 C0.598125 0.37125 1.19625 0.7425 1.8125 1.125 C4.99631889 2.39852755 7.65751862 1.48617911 11 1 C11.99 1.66 12.98 2.32 14 3 C14 3.66 14 4.32 14 5 C15.98 5 17.96 5 20 5 C20 5.33 20 5.66 20 6 C14.03251062 6.20320622 8.84882512 5.54761873 3.0625 4.125 C2.29615234 3.95097656 1.52980469 3.77695312 0.74023438 3.59765625 C-1.19143579 3.13569793 -3.09907355 2.57552911 -5 2 C-5.33 1.34 -5.66 0.68 -6 0 C-3.44901433 -1.27549283 -2.66705587 -0.86287102 0 0 Z" transform="translate(246,391)"/><path fill="#231013" d="M0 0 C2.64 0.33 5.28 0.66 8 1 C8.33 1.99 8.66 2.98 9 4 C9.66 4.66 10.32 5.32 11 6 C9.741875 5.67 8.48375 5.34 7.1875 5 C-1.08044639 3.300943 -9.6043379 3.84484403 -18 4 C-14.34827367 1.73150334 -10.9872882 1.6104049 -6.75 1.375 C-5.48671875 1.30023438 -4.2234375 1.22546875 -2.921875 1.1484375 C-1.47554688 1.07496094 -1.47554688 1.07496094 0 1 C0 0.67 0 0.34 0 0 Z" transform="translate(309,311)"/><path fill="#2A1612" d="M0 0 C0.99 0 1.98 0 3 0 C3.144375 0.78375 3.28875 1.5675 3.4375 2.375 C4.71536857 5.15156763 4.71536857 5.15156763 7.13671875 5.77734375 C9.41974691 6.26835609 11.68695927 6.68112401 14 7 C14 7.33 14 7.66 14 8 C7.35590042 8.21432579 1.46794133 7.51233701 -5 6 C-4.54625 5.566875 -4.0925 5.13375 -3.625 4.6875 C-1.79975666 2.89201658 -1.79975666 2.89201658 0 0 Z" transform="translate(262,459)"/><path fill="#29150C" d="M0 0 C1.24546405 2.49092811 0.7767578 3.41080733 0 6 C0.99 6.66 1.98 7.32 3 8 C2.67 8.99 2.34 9.98 2 11 C0.02 11 -1.96 11 -4 11 C-5.32 13.64 -6.64 16.28 -8 19 C-9 16 -9 16 -7.3828125 12.4609375 C-6.64047576 11.09333505 -5.88740383 9.73151785 -5.125 8.375 C-4.55845703 7.33472656 -4.55845703 7.33472656 -3.98046875 6.2734375 C-1.19118642 1.19118642 -1.19118642 1.19118642 0 0 Z" transform="translate(231,343)"/><path fill="#2F170D" d="M0 0 C2 1 2 1 3.125 4.0625 C3.41375 5.031875 3.7025 6.00125 4 7 C3.01 7 2.02 7 1 7 C1 7.66 1 8.32 1 9 C0.34 9 -0.32 9 -1 9 C-1.625 6.1875 -1.625 6.1875 -2 3 C-1.34 2.01 -0.68 1.02 0 0 Z M-4 1 C-3.67 1 -3.34 1 -3 1 C-2.67 3.64 -2.34 6.28 -2 9 C-4.97 9 -7.94 9 -11 9 C-11 8.67 -11 8.34 -11 8 C-9.02 7.34 -7.04 6.68 -5 6 C-4.67 4.35 -4.34 2.7 -4 1 Z" transform="translate(219,382)"/><path fill="#241212" d="M0 0 C0 3 0 3 -1 5 C-0.34 5 0.32 5 1 5 C1 5.66 1 6.32 1 7 C0.401875 7.165 -0.19625 7.33 -0.8125 7.5 C-5.79557649 10.91696674 -6.69225671 19.36664428 -8 25 C-8.33 25 -8.66 25 -9 25 C-9.84478985 15.49611417 -5.82818404 7.28523005 0 0 Z" transform="translate(255,257)"/><path fill="#211012" d="M0 0 C7.68897931 0.51405694 15.34855794 1.0765501 23 2 C23 2.33 23 2.66 23 3 C19.37 3 15.74 3 12 3 C11.67 4.32 11.34 5.64 11 7 C9.35 6.67 7.7 6.34 6 6 C6.66 5.67 7.32 5.34 8 5 C8 4.34 8 3.68 8 3 C5.36 2.34 2.72 1.68 0 1 C0 0.67 0 0.34 0 0 Z" transform="translate(264,433)"/><path fill="#221009" d="M0 0 C2 2 2 2 2.21118164 3.99951172 C2.19434326 4.80146973 2.17750488 5.60342773 2.16015625 6.4296875 C2.14919922 7.30753906 2.13824219 8.18539063 2.12695312 9.08984375 C2.09504883 10.46849609 2.09504883 10.46849609 2.0625 11.875 C2.02794203 13.68481368 1.99783151 15.49471899 1.97265625 17.3046875 C1.95468994 18.10890137 1.93672363 18.91311523 1.91821289 19.74169922 C1.99895472 21.97113768 2.3764259 23.86438857 3 26 C1.02 26.99 1.02 26.99 -1 28 C-1.125 20.375 -1.125 20.375 0 17 C0.07973476 15.66474283 0.10771338 14.32587917 0.09765625 12.98828125 C0.09443359 12.23095703 0.09121094 11.47363281 0.08789062 10.69335938 C0.07532227 9.51483398 0.07532227 9.51483398 0.0625 8.3125 C0.05798828 7.51521484 0.05347656 6.71792969 0.04882812 5.89648438 C0.0370585 3.93095743 0.01912348 1.96546915 0 0 Z" transform="translate(452,331)"/><path fill="#251312" d="M0 0 C2.97 0.495 2.97 0.495 6 1 C3.11266663 4.09793886 0.17215434 6.29715963 -3.4375 8.5 C-7.17859819 10.7894064 -10.61943186 13.20228843 -14 16 C-11.59472668 10.30135244 -6.48432985 7.13865118 -1 4.625 C-0.01 4.315625 -0.01 4.315625 1 4 C0.67 2.68 0.34 1.36 0 0 Z" transform="translate(328,501)"/><path fill="#E0CE9F" d="M0 0 C0.99 0 1.98 0 3 0 C3.625 2.3125 3.625 2.3125 4 5 C3.01 6.485 3.01 6.485 2 8 C1.54605448 10.27912938 1.54605448 10.27912938 1.375 12.6875 C1.30023438 13.49574219 1.22546875 14.30398438 1.1484375 15.13671875 C1.09945312 15.75160156 1.05046875 16.36648438 1 17 C0.34 16.67 -0.32 16.34 -1 16 C-1.02712153 14.083412 -1.04645097 12.1667127 -1.0625 10.25 C-1.07410156 9.18265625 -1.08570313 8.1153125 -1.09765625 7.015625 C-1.01510087 4.46631499 -0.74617558 2.42066409 0 0 Z" transform="translate(154,331)"/><path fill="#341A10" d="M0 0 C2.4375 0.8125 2.4375 0.8125 5 2 C5.33 2.99 5.66 3.98 6 5 C6.66 4.01 7.32 3.02 8 2 C8 3.32 8 4.64 8 6 C5.5 8.25 5.5 8.25 3 10 C2.731875 9.360625 2.46375 8.72125 2.1875 8.0625 C1.11332248 5.66868314 1.11332248 5.66868314 -2 5 C-1.34 3.35 -0.68 1.7 0 0 Z" transform="translate(236,92)"/><path fill="#FAD7A6" d="M0 0 C0.33 0 0.66 0 1 0 C0.67 7.59 0.34 15.18 0 23 C-0.66 23 -1.32 23 -2 23 C-2.33 23.66 -2.66 24.32 -3 25 C-2.4237919 16.58432901 -1.38227951 8.32051741 0 0 Z" transform="translate(101,294)"/><path fill="#9A887C" d="M0 0 C3.5682233 5.35233495 4.32665309 11.63026469 4 18 C3.67 18 3.34 18 3 18 C2.67 15.03 2.34 12.06 2 9 C0.70366379 10.06645115 0.70366379 10.06645115 0.9375 12.5625 C0.958125 13.366875 0.97875 14.17125 1 15 C0.67 14.01 0.34 13.02 0 12 C-0.66 11.67 -1.32 11.34 -2 11 C-1.34 7.37 -0.68 3.74 0 0 Z" transform="translate(407,120)"/><path fill="#FEFCF5" d="M0 0 C0.66 0.33 1.32 0.66 2 1 C-1.4524818 6.61946506 -4.67267854 11.0679294 -10 15 C-10 11.28151944 -9.15593473 10.72513871 -6.6875 8.0625 C-4.29953617 5.46427521 -2.07620151 2.85557562 0 0 Z" transform="translate(526,530)"/><path fill="#F5B51E" d="M0 0 C2.64 0.33 5.28 0.66 8 1 C7.01 1.66 6.02 2.32 5 3 C11.435 7.95 11.435 7.95 18 13 C17.01 13.33 16.02 13.66 15 14 C12.66527552 12.32256738 10.57841315 10.64832343 8.4375 8.75 C7.84775391 8.24597656 7.25800781 7.74195313 6.65039062 7.22265625 C3.96558378 4.89521278 1.9952931 2.99293965 0 0 Z" transform="translate(256,465)"/><path fill="#EEE8E2" d="M0 0 C0.33 0 0.66 0 1 0 C1 3.96 1 7.92 1 12 C-1.83556587 13.41778293 -3.9908706 12.86257622 -7.125 12.5625 C-8.76855469 12.40974609 -8.76855469 12.40974609 -10.4453125 12.25390625 C-11.28835937 12.17011719 -12.13140625 12.08632812 -13 12 C-12.67 11.34 -12.34 10.68 -12 10 C-10.9275 10.020625 -9.855 10.04125 -8.75 10.0625 C-4.91933442 10.14015434 -4.91933442 10.14015434 -1 9 C-0.67 6.03 -0.34 3.06 0 0 Z" transform="translate(194,139)"/><path fill="#EDAC1E" d="M0 0 C5.61310608 1.36075299 8.73740786 5.51292884 12 10 C13.23926758 12.31764779 14.11929107 14.51329243 15 17 C14.34 17 13.68 17 13 17 C11.44317965 14.52552307 10.1019662 11.96402218 8.73046875 9.3828125 C6.7238347 6.61972724 5.22762723 5.95349259 2 5 C2.33 4.01 2.66 3.02 3 2 C2.01 1.67 1.02 1.34 0 1 C0 0.67 0 0.34 0 0 Z" transform="translate(258,224)"/><path fill="#2A1512" d="M0 0 C0.89868727 2.51632435 1.1616905 3.60732308 0.125 6.125 C-0.24625 6.74375 -0.6175 7.3625 -1 8 C-2.24546405 10.49092811 -1.7767578 11.41080733 -1 14 C-4.29078593 11.20283196 -6.06305458 7.80471422 -8 4 C-7.67 3.34 -7.34 2.68 -7 2 C-6.01 3.485 -6.01 3.485 -5 5 C-4.01 5 -3.02 5 -2 5 C-1.67 4.01 -1.34 3.02 -1 2 C-0.67 1.34 -0.34 0.68 0 0 Z" transform="translate(232,450)"/><path fill="#E8961E" d="M0 0 C0.33 0.66 0.66 1.32 1 2 C2.32 1.67 3.64 1.34 5 1 C5.66 2.32 6.32 3.64 7 5 C3.37 5.33 -0.26 5.66 -4 6 C-4 5.01 -4 4.02 -4 3 C-2 1.3125 -2 1.3125 0 0 Z" transform="translate(272,358)"/><path fill="#F1ECDE" d="M0 0 C0 0.33 0 0.66 0 1 C-2.95714663 1.38831218 -5.91483273 1.76115547 -8.875 2.125 C-10.13763672 2.29322266 -10.13763672 2.29322266 -11.42578125 2.46484375 C-12.23144531 2.56152344 -13.03710938 2.65820312 -13.8671875 2.7578125 C-14.98262939 2.89920654 -14.98262939 2.89920654 -16.12060547 3.04345703 C-18 3 -18 3 -20 1 C-13.02420757 -0.7958955 -7.11778518 -1.12067256 0 0 Z" transform="translate(300,74)"/><path fill="#2F180E" d="M0 0 C4 0 4 0 6.75 2.5 C7.86375 3.7375 7.86375 3.7375 9 5 C7.68 5 6.36 5 5 5 C3.65835921 5.2981424 2.32148827 5.62243192 1 6 C1 5.34 1 4.68 1 4 C0.34 4 -0.32 4 -1 4 C-0.67 2.68 -0.34 1.36 0 0 Z" transform="translate(159,367)"/><path fill="#F19517" d="M0 0 C0.99 0.33 1.98 0.66 3 1 C2.36578125 1.23460937 1.7315625 1.46921875 1.078125 1.7109375 C-1.18250739 2.82290908 -1.18250739 2.82290908 -1.828125 5.1640625 C-2.03695312 6.38222656 -2.03695312 6.38222656 -2.25 7.625 C-2.39953125 8.44226563 -2.5490625 9.25953125 -2.703125 10.1015625 C-2.85007812 11.04128906 -2.85007812 11.04128906 -3 12 C-3.66 12 -4.32 12 -5 12 C-5.33 12.66 -5.66 13.32 -6 14 C-5.62257767 7.83543524 -3.84129692 4.82624485 0 0 Z" transform="translate(127,164)"/><path fill="#FCFCF4" d="M0 0 C-2.37473224 2.37473224 -3.62371653 2.5171933 -6.875 3.125 C-8.17050781 3.37636719 -8.17050781 3.37636719 -9.4921875 3.6328125 C-12 4 -12 4 -16 4 C-16 3.34 -16 2.68 -16 2 C-10.54538831 0.61470179 -5.63281599 -0.2396943 0 0 Z" transform="translate(290,44)"/><path fill="#F6B01E" d="M0 0 C2.31 0 4.62 0 7 0 C7.22245393 1.60226955 7.42746669 3.20696767 7.625 4.8125 C7.74101562 5.70582031 7.85703125 6.59914063 7.9765625 7.51953125 C8 10 8 10 6 13 C4.4375 11.75 4.4375 11.75 3 10 C3.3125 7.8125 3.3125 7.8125 4 6 C4.33 6 4.66 6 5 6 C5.33 4.35 5.66 2.7 6 1 C4.02 1 2.04 1 0 1 C0 0.67 0 0.34 0 0 Z" transform="translate(205,410)"/><path fill="#2E1912" d="M0 0 C3.65316671 1.24976756 4.78065836 1.67098753 7 5 C4.525 4.01 4.525 4.01 2 3 C1.67 3.99 1.34 4.98 1 6 C-1.0625 6.6875 -1.0625 6.6875 -3 7 C-2.67 5.35 -2.34 3.7 -2 2 C-1.34 2 -0.68 2 0 2 C0 1.34 0 0.68 0 0 Z" transform="translate(268,477)"/><path fill="#211013" d="M0 0 C0.33 0 0.66 0 1 0 C1.33 2.97 1.66 5.94 2 9 C2.99 9.33 3.98 9.66 5 10 C3.79618552 12.49361571 2.54571278 14.68143083 1 17 C-0.18681726 13.43954823 -0.09689832 10.56191663 -0.0625 6.8125 C-0.05347656 5.54019531 -0.04445312 4.26789063 -0.03515625 2.95703125 C-0.02355469 1.98121094 -0.01195312 1.00539063 0 0 Z" transform="translate(245,285)"/><path fill="#E3A41E" d="M0 0 C-1.5625 2.0625 -1.5625 2.0625 -4 4 C-7.6875 3.875 -7.6875 3.875 -11 3 C-11.33 2.34 -11.66 1.68 -12 1 C-10.37681021 0.63762737 -8.7513642 0.28534843 -7.125 -0.0625 C-6.22007812 -0.25972656 -5.31515625 -0.45695312 -4.3828125 -0.66015625 C-2 -1 -2 -1 0 0 Z" transform="translate(351,465)"/><path fill="#2C1612" d="M0 0 C2.64 0.33 5.28 0.66 8 1 C8 1.99 8 2.98 8 4 C8.66 4.33 9.32 4.66 10 5 C8.35 6.32 6.7 7.64 5 9 C5 8.01 5 7.02 5 6 C4.34 5.34 3.68 4.68 3 4 C3 3.34 3 2.68 3 2 C2.01 1.34 1.02 0.68 0 0 Z" transform="translate(248,430)"/><path fill="#F4B01D" d="M0 0 C-0.99 0.33 -1.98 0.66 -3 1 C-3.33 1.99 -3.66 2.98 -4 4 C-4.70125 3.814375 -5.4025 3.62875 -6.125 3.4375 C-9.33888698 2.94843024 -11.83560336 3.33768442 -15 4 C-10.0268126 -0.08511822 -6.37494396 -0.12259508 0 0 Z" transform="translate(300,315)"/><path fill="#251112" d="M0 0 C0.66 0.33 1.32 0.66 2 1 C2.05410687 2.77049689 2.09284119 4.54146849 2.125 6.3125 C2.14820313 7.29863281 2.17140625 8.28476562 2.1953125 9.30078125 C2 12 2 12 0 15 C0 11.04 0 7.08 0 3 C-0.66 2.67 -1.32 2.34 -2 2 C-1.34 2 -0.68 2 0 2 C0 1.34 0 0.68 0 0 Z" transform="translate(359,287)"/><path fill="#FAB61C" d="M0 0 C1.37478516 0.01740234 1.37478516 0.01740234 2.77734375 0.03515625 C3.69644531 0.04417969 4.61554688 0.05320312 5.5625 0.0625 C6.27277344 0.07410156 6.98304688 0.08570313 7.71484375 0.09765625 C7.71484375 0.42765625 7.71484375 0.75765625 7.71484375 1.09765625 C3.25984375 1.59265625 3.25984375 1.59265625 -1.28515625 2.09765625 C-1.61515625 4.73765625 -1.94515625 7.37765625 -2.28515625 10.09765625 C-2.61515625 10.09765625 -2.94515625 10.09765625 -3.28515625 10.09765625 C-3.31204841 8.61858733 -3.33150246 7.13938142 -3.34765625 5.66015625 C-3.35925781 4.83644531 -3.37085938 4.01273437 -3.3828125 3.1640625 C-3.24381204 0.22281267 -2.9444484 0.12583113 0 0 Z" transform="translate(397.28515625,408.90234375)"/><path fill="#472512" d="M0 0 C0.33 0 0.66 0 1 0 C1 4.95 1 9.9 1 15 C0.01 14.67 -0.98 14.34 -2 14 C-1.85795259 12.41632253 -1.71119847 10.83306682 -1.5625 9.25 C-1.48128906 8.36828125 -1.40007812 7.4865625 -1.31640625 6.578125 C-1.03761535 4.30649548 -0.61209423 2.20148177 0 0 Z" transform="translate(473,333)"/><path fill="#2A1613" d="M0 0 C0.33 0.99 0.66 1.98 1 3 C2.66072849 3.68132451 4.327767 4.34742127 6 5 C6.99 6.485 6.99 6.485 8 8 C6.35 8 4.7 8 3 8 C3 7.34 3 6.68 3 6 C2.01 6.33 1.02 6.66 0 7 C-1.04449911 3.86650268 -0.93423645 3.01031744 0 0 Z" transform="translate(332,239)"/><path fill="#F6B021" d="M0 0 C-0.99 1.32 -1.98 2.64 -3 4 C-2.01 5.98 -1.02 7.96 0 10 C-3 9 -3 9 -4.6875 6.125 C-6 3 -6 3 -6 0 C-2.25 -1.125 -2.25 -1.125 0 0 Z" transform="translate(296,224)"/><path fill="#98897F" d="M0 0 C1.5625 1.0625 1.5625 1.0625 3 3 C2.6875 6.6875 2.6875 6.6875 2 10 C1.34 9.01 0.68 8.02 0 7 C-0.66 8.32 -1.32 9.64 -2 11 C-2.19622241 6.78121808 -1.80230168 3.82989106 0 0 Z" transform="translate(198,120)"/><path fill="#F1EBDF" d="M0 0 C4.55737263 0.43820891 7.57653445 0.85041169 11 4 C7.52128379 5.15957207 6.65780355 4.77456651 3.3125 3.5625 C2.50425781 3.27503906 1.69601562 2.98757812 0.86328125 2.69140625 C0.24839844 2.46324219 -0.36648438 2.23507813 -1 2 C-0.67 1.34 -0.34 0.68 0 0 Z" transform="translate(332,47)"/><path fill="#2C1712" d="M0 0 C-0.37125 0.886875 -0.7425 1.77375 -1.125 2.6875 C-2.10784228 6.40826005 -1.76062164 7.67438135 0 11 C-2.5 8.6875 -2.5 8.6875 -5 6 C-5 3 -5 3 -3.625 1.3125 C-2 0 -2 0 0 0 Z" transform="translate(238,462)"/><path fill="#F5E6B6" d="M0 0 C1 3 1 3 0.07421875 5.4453125 C-0.38339844 6.32960938 -0.84101563 7.21390625 -1.3125 8.125 C-1.98732422 9.45917969 -1.98732422 9.45917969 -2.67578125 10.8203125 C-4 13 -4 13 -6 14 C-6 12.02 -6 10.04 -6 8 C-5.01 7.67 -4.02 7.34 -3 7 C-1.28432339 3.49705129 -1.28432339 3.49705129 0 0 Z" transform="translate(450,350)"/><path fill="#FAE5AE" d="M0 0 C0.53625 0.226875 1.0725 0.45375 1.625 0.6875 C0.965 0.6875 0.305 0.6875 -0.375 0.6875 C-1.035 2.3375 -1.695 3.9875 -2.375 5.6875 C-4.375 4.6875 -6.375 3.6875 -8.375 2.6875 C-2.95961538 -0.38942308 -2.95961538 -0.38942308 0 0 Z" transform="translate(402.375,313.3125)"/><path fill="#3D2114" d="M0 0 C1.65 0 3.3 0 5 0 C5.33 1.32 5.66 2.64 6 4 C3.36 4.33 0.72 4.66 -2 5 C-1.34 3.35 -0.68 1.7 0 0 Z" transform="translate(211,176)"/><path fill="#F19615" d="M0 0 C2 2 2 2 2 5 C1.01 5.33 0.02 5.66 -1 6 C-1 6.99 -1 7.98 -1 9 C-2.32 7.35 -3.64 5.7 -5 4 C-4.67 3.34 -4.34 2.68 -4 2 C-3.34 2 -2.68 2 -2 2 C-1.34 1.34 -0.68 0.68 0 0 Z" transform="translate(86,528)"/><path fill="#291412" d="M0 0 C2 3 2 3 2 6 C1.071875 6.12375 1.071875 6.12375 0.125 6.25 C-2.18437567 6.81258459 -2.18437567 6.81258459 -3.25 9.0625 C-3.4975 9.701875 -3.745 10.34125 -4 11 C-3.48964169 6.6109185 -2.47785723 3.66291938 0 0 Z" transform="translate(140,313)"/><path fill="#291512" d="M0 0 C0.66 0.33 1.32 0.66 2 1 C1.4375 2.9375 1.4375 2.9375 0 5 C-3.625 5.75 -3.625 5.75 -7 6 C-2.25 1.125 -2.25 1.125 0 0 Z" transform="translate(364,309)"/><path fill="#F8AF20" d="M0 0 C0.33 0.99 0.66 1.98 1 3 C1.66 3.33 2.32 3.66 3 4 C2.01 4.495 2.01 4.495 1 5 C1 5.66 1 6.32 1 7 C-1.64 7 -4.28 7 -7 7 C-7 6.67 -7 6.34 -7 6 C-5.35 6 -3.7 6 -2 6 C-2.33 4.68 -2.66 3.36 -3 2 C-2.01 2.33 -1.02 2.66 0 3 C0 2.01 0 1.02 0 0 Z" transform="translate(329,427)"/><path fill="#F0AF1E" d="M0 0 C4.59306496 1.4859916 7.43569245 3.85014682 11 7 C10.01 7.495 10.01 7.495 9 8 C7.49460339 7.05016642 5.99579653 6.08988109 4.5 5.125 C3.6646875 4.59132813 2.829375 4.05765625 1.96875 3.5078125 C1.3190625 3.01023437 0.669375 2.51265625 0 2 C0 1.34 0 0.68 0 0 Z" transform="translate(257,493)"/><path fill="#2A1413" d="M0 0 C0.33 0.66 0.66 1.32 1 2 C1.66 2.33 2.32 2.66 3 3 C0.03 5.475 0.03 5.475 -3 8 C-3 6.35 -3 4.7 -3 3 C-2.34 3 -1.68 3 -1 3 C-0.67 2.01 -0.34 1.02 0 0 Z" transform="translate(260,330)"/><path fill="#F1EBE5" d="M0 0 C3.66161578 1.22053859 4.16270474 2.36782304 6.1875 5.5625 C6.71730469 6.38878906 7.24710937 7.21507813 7.79296875 8.06640625 C8.19128906 8.70449219 8.58960938 9.34257813 9 10 C8.67 10.66 8.34 11.32 8 12 C6.84906075 10.5665848 5.70441965 9.12811091 4.5625 7.6875 C3.92441406 6.88699219 3.28632813 6.08648437 2.62890625 5.26171875 C1 3 1 3 0 0 Z" transform="translate(365,102)"/><path fill="#27130B" d="M0 0 C0.66 0.33 1.32 0.66 2 1 C-1.32307692 5.8 -1.32307692 5.8 -4.75 6.8125 C-5.4925 6.874375 -6.235 6.93625 -7 7 C-4.78071806 4.09197539 -3.07030857 2.04687238 0 0 Z" transform="translate(241,64)"/><path fill="#F8AF20" d="M0 0 C0.33 0 0.66 0 1 0 C1 2.97 1 5.94 1 9 C0.67 8.01 0.34 7.02 0 6 C-0.99 6.33 -1.98 6.66 -3 7 C-3 5.68 -3 4.36 -3 3 C-2.34 3 -1.68 3 -1 3 C-0.67 2.01 -0.34 1.02 0 0 Z" transform="translate(232,204)"/><path fill="#2D180E" d="M0 0 C0.66 0.33 1.32 0.66 2 1 C1.01 1.33 0.02 1.66 -1 2 C-0.67 2.99 -0.34 3.98 0 5 C-1.98 5.99 -1.98 5.99 -4 7 C-4.33 5.68 -4.66 4.36 -5 3 C-2.625 1.4375 -2.625 1.4375 0 0 Z" transform="translate(256,55)"/><path fill="#2A1511" d="M0 0 C0.99 0.33 1.98 0.66 3 1 C3.99 1 4.98 1 6 1 C3.03 3.475 3.03 3.475 0 6 C-0.66 5.67 -1.32 5.34 -2 5 C-1.34 3.35 -0.68 1.7 0 0 Z" transform="translate(348,487)"/><path fill="#200F12" d="M0 0 C0.66 0 1.32 0 2 0 C2 0.66 2 1.32 2 2 C3.65 1.67 5.3 1.34 7 1 C4.48300155 3.51699845 2.42445854 4.10964078 -1 5 C-3.375 4.625 -3.375 4.625 -5 4 C-3.35 3.67 -1.7 3.34 0 3 C0 2.01 0 1.02 0 0 Z" transform="translate(417,401)"/><path fill="#1D0F12" d="M0 0 C-1.4375 1.5625 -1.4375 1.5625 -4 3 C-7.05380927 2.96846324 -9.99653222 2.53266629 -13 2 C-13 1.67 -13 1.34 -13 1 C-8.59085217 -0.10228696 -4.51617599 -0.07654536 0 0 Z" transform="translate(352,362)"/><path fill="#2F1812" d="M0 0 C2.31 0 4.62 0 7 0 C6.34 0.66 5.68 1.32 5 2 C4.30251417 3.31747324 3.63040043 4.64914193 3 6 C0 2.25 0 2.25 0 0 Z" transform="translate(359,351)"/><path fill="#EDE8DC" d="M0 0 C3.37503669 1.1858237 5.64722731 2.27573689 8 5 C7.67 5.66 7.34 6.32 7 7 C4.36 5.35 1.72 3.7 -1 2 C-0.67 1.34 -0.34 0.68 0 0 Z" transform="translate(356,57)"/><path fill="#1F0F11" d="M0 0 C3.3 0 6.6 0 10 0 C7.50494038 2.49505962 6.32671112 2.35948376 2.875 2.625 C1.96492188 2.69976562 1.05484375 2.77453125 0.1171875 2.8515625 C-0.93082031 2.92503906 -0.93082031 2.92503906 -2 3 C-1.34 2.67 -0.68 2.34 0 2 C0 1.34 0 0.68 0 0 Z" transform="translate(356,391)"/><path fill="#422517" d="M0 0 C0.66 0.66 1.32 1.32 2 2 C3.31747324 2.69748583 4.64914193 3.36959957 6 4 C5.01 4 4.02 4 3 4 C3.33 5.65 3.66 7.3 4 9 C3.34 9 2.68 9 2 9 C0 3.375 0 3.375 0 0 Z" transform="translate(193,386)"/><path fill="#211010" d="M0 0 C0.66 0.66 1.32 1.32 2 2 C3.98821313 2.39764263 5.98944339 2.73775349 8 3 C8 3.33 8 3.66 8 4 C4.7 4.33 1.4 4.66 -2 5 C-1.34 3.35 -0.68 1.7 0 0 Z" transform="translate(356,215)"/><path fill="#2D160D" d="M0 0 C0.99 0.33 1.98 0.66 3 1 C1.92598892 3.91517292 1.22189824 5.77810176 -1 8 C-1.625 5.6875 -1.625 5.6875 -2 3 C-1.34 2.01 -0.68 1.02 0 0 Z" transform="translate(232,106)"/><path fill="#E9991E" d="M0 0 C0 0.66 0 1.32 0 2 C-1.98 2.99 -1.98 2.99 -4 4 C-4.99 2.68 -5.98 1.36 -7 0 C-3.98968256 -0.93423645 -3.13349732 -1.04449911 0 0 Z" transform="translate(267,467)"/><path fill="#FEFEFD" d="M0 0 C0.33 0.66 0.66 1.32 1 2 C0.01 3.485 0.01 3.485 -1 5 C-1.66 5 -2.32 5 -3 5 C-3.33 5.99 -3.66 6.98 -4 8 C-4.66 8 -5.32 8 -6 8 C-4.55746343 4.63408134 -2.66735273 2.48952921 0 0 Z" transform="translate(247,94)"/><path fill="#482815" d="M0 0 C-0.33 0.66 -0.66 1.32 -1 2 C-4.0625 2.625 -4.0625 2.625 -7 3 C-7 2.01 -7 1.02 -7 0 C-3.98968256 -0.93423645 -3.13349732 -1.04449911 0 0 Z" transform="translate(251,361)"/><path fill="#F2D096" d="M0 0 C0.99 0 1.98 0 3 0 C3.6875 2.3125 3.6875 2.3125 4 5 C2.5625 6.8125 2.5625 6.8125 1 8 C0.67 5.36 0.34 2.72 0 0 Z" transform="translate(154,331)"/><path fill="#231212" d="M0 0 C1.65 0 3.3 0 5 0 C5.33 1.98 5.66 3.96 6 6 C3.97945196 4.35830472 1.97956942 2.69088222 0 1 C0 0.67 0 0.34 0 0 Z" transform="translate(342,331)"/><path fill="#E3A31D" d="M0 0 C0.99 0.33 1.98 0.66 3 1 C4.1875 4.0625 4.1875 4.0625 5 7 C4.34 7 3.68 7 3 7 C3 6.34 3 5.68 3 5 C2.01 4.67 1.02 4.34 0 4 C-0.33 3.01 -0.66 2.02 -1 1 C-0.67 0.67 -0.34 0.34 0 0 Z" transform="translate(245,307)"/><path fill="#F7C17A" d="M0 0 C0.33 0 0.66 0 1 0 C1 1.98 1 3.96 1 6 C0.34 6 -0.32 6 -1 6 C-1.33 6.99 -1.66 7.98 -2 9 C-2 6.69 -2 4.38 -2 2 C-1.34 2 -0.68 2 0 2 C0 1.34 0 0.68 0 0 Z" transform="translate(120,179)"/></svg>