<svg xmlns="http://www.w3.org/2000/svg" width="1365.333" height="2048" preserveAspectRatio="xMidYMid meet" version="1.0" viewBox="0 0 1024 1536"><g fill="#000" stroke="none"><path d="M4935 13399 c-694 -65 -1298 -425 -1675 -999 -196 -299 -328 -705 -348 -1075 l-7 -120 -435 -5 c-414 -5 -438 -6 -500 -27 -178 -61 -329 -200 -401 -371 -32 -77 -34 -91 -139 -752 -71 -448 -110 -691 -185 -1145 -35 -214 -94 -572 -130 -795 -73 -450 -281 -1708 -437 -2645 -113 -678 -121 -767 -84 -928 72 -320 322 -577 641 -657 80 -20 96 -20 3900 -18 l3820 3 95 33 c304 106 521 336 591 627 36 150 31 269 -25 605 -25 157 -76 465 -112 685 -36 220 -100 616 -144 880 -43 264 -91 554 -105 645 -15 91 -49 302 -76 470 -27 168 -56 346 -64 395 -46 289 -137 843 -206 1265 -44 267 -88 541 -99 610 -68 430 -101 622 -118 670 -75 217 -246 373 -470 431 -68 17 -113 19 -474 19 l-398 0 0 63 c0 76 -23 263 -45 372 -190 923 -919 1614 -1848 1750 -136 20 -390 27 -522 14z m388 -994 c338 -51 648 -251 844 -545 83 -124 138 -248 179 -402 18 -71 43 -246 36 -253 -3 -3 -569 -5 -1259 -5 l-1253 0 0 28 c0 15 7 64 15 110 48 272 168 512 352 703 108 112 189 173 313 237 137 71 280 116 435 135 75 10 249 6 338 -8z m-2200 -1581 c2 -71 10 -148 17 -172 17 -54 80 -126 132 -153 128 -65 297 -9 360 119 20 40 24 67 28 190 3 78 8 142 13 142 4 0 663 0 1466 0 l1459 0 4 -142 c5 -157 13 -189 68 -252 53 -59 102 -81 190 -81 88 0 135 19 191 78 56 57 68 101 71 260 l3 138 521 -1 c488 0 525 -2 578 -20 138 -47 234 -159 257 -299 5 -31 29 -180 53 -331 97 -599 150 -923 216 -1325 88 -535 169 -1038 215 -1325 19 -124 47 -292 60 -375 111 -675 195 -1191 260 -1590 42 -258 92 -562 111 -674 19 -112 34 -239 34 -281 0 -285 -195 -536 -481 -617 -61 -17 -217 -18 -3829 -18 -3626 0 -3767 1 -3830 18 -282 80 -479 333 -480 614 0 35 27 224 59 420 33 197 85 513 116 703 31 190 105 642 165 1005 60 363 127 770 149 905 125 769 258 1581 302 1845 56 338 104 637 140 870 34 230 53 280 133 361 28 27 78 63 111 80 l60 29 535 5 c294 3 536 5 537 4 2 0 4 -59 6 -130z" transform="translate(0.000000,1536.000000) scale(0.100000,-0.100000)"/><path d="M3870 10191 c-46 -15 -71 -35 -91 -73 -23 -45 -24 -79 -3 -123 28 -60 56 -76 170 -101 161 -36 270 -98 378 -215 50 -53 156 -199 156 -213 0 -3 -35 -29 -77 -57 -150 -101 -304 -279 -375 -436 -114 -252 -115 -589 -2 -868 4 -11 -22 8 -59 42 -261 243 -606 423 -917 479 -151 28 -376 24 -516 -9 -137 -31 -234 -72 -340 -142 -191 -127 -306 -291 -351 -500 -23 -105 -13 -293 22 -409 52 -179 151 -334 316 -496 269 -266 659 -455 1065 -516 l111 -16 17 -116 c55 -366 253 -721 586 -1050 130 -129 233 -212 475 -382 345 -242 446 -331 510 -448 64 -119 129 -159 215 -133 46 14 109 79 146 152 45 90 180 203 529 447 372 258 579 459 767 739 126 188 239 471 274 685 l17 106 86 12 c399 55 787 235 1055 491 126 120 205 222 268 344 79 156 108 272 108 439 0 220 -78 404 -232 553 -188 180 -422 265 -728 266 -176 0 -288 -18 -465 -75 -256 -82 -517 -238 -722 -431 -57 -54 -60 -55 -38 -11 27 56 65 219 75 329 28 295 -69 576 -275 794 -70 74 -207 184 -245 196 -11 3 -20 10 -20 14 0 19 101 160 156 220 112 121 228 187 382 216 49 10 86 24 109 41 89 68 80 196 -17 247 -72 38 -272 -1 -428 -83 -219 -115 -367 -268 -512 -530 -4 -6 -29 -3 -65 6 -100 24 -332 29 -459 9 -60 -9 -114 -19 -120 -21 -7 -3 -22 17 -35 43 -123 254 -399 490 -658 562 -82 22 -207 34 -243 22z m-892 -1847 c262 -54 502 -189 806 -456 l39 -34 -63 -84 c-187 -253 -333 -573 -376 -825 -10 -55 -20 -103 -23 -107 -10 -12 -248 39 -366 78 -422 139 -755 420 -852 719 -48 149 -31 319 43 437 82 129 224 226 391 267 101 25 293 27 401 5z m4741 -19 c251 -85 401 -277 401 -512 0 -102 -19 -182 -67 -277 -49 -98 -85 -148 -172 -239 -214 -224 -530 -382 -894 -446 -78 -13 -109 -16 -112 -7 -1 6 -10 54 -19 106 -25 140 -77 285 -166 466 -72 146 -200 354 -253 412 l-22 23 50 45 c241 214 440 339 650 409 137 46 197 55 365 51 139 -3 163 -6 239 -31z m-2394 -74 c229 -55 426 -181 675 -430 180 -181 390 -454 358 -466 -87 -32 -386 -90 -628 -122 -185 -24 -827 -29 -1065 -9 -280 24 -569 72 -743 122 l-53 15 60 87 c228 332 513 599 776 727 205 100 413 125 620 76z m-1425 -1456 c367 -93 762 -136 1235 -136 315 0 383 3 610 27 272 29 515 75 716 135 54 16 100 29 102 29 10 0 15 -191 7 -273 -11 -106 -48 -281 -64 -301 -6 -7 -70 -30 -142 -49 -622 -172 -1397 -202 -2114 -82 -227 38 -491 104 -517 129 -35 33 -80 363 -68 500 l7 84 66 -19 c37 -11 110 -30 162 -44z m330 -1189 c36 -8 115 -22 175 -30 563 -81 1137 -71 1598 28 59 12 107 21 107 20 0 -14 -290 -248 -521 -421 -162 -121 -331 -255 -376 -297 -44 -42 -84 -76 -88 -76 -4 0 -39 30 -78 66 -64 58 -302 241 -532 409 -163 119 -407 330 -370 321 11 -3 49 -12 85 -20z" transform="translate(0.000000,1536.000000) scale(0.100000,-0.100000)"/></g></svg>